<svg width="35" height="26" viewBox="0 0 35 26" fill="none" xmlns="http://www.w3.org/2000/svg">
<path d="M33.0556 0H1.94444C1.42875 0 0.934169 0.195662 0.569515 0.543944C0.204861 0.892226 0 1.3646 0 1.85714V22.9048C0 23.7257 0.341434 24.513 0.949191 25.0934C1.55695 25.6739 2.38124 26 3.24074 26H31.7593C32.6188 26 33.4431 25.6739 34.0508 25.0934C34.6586 24.513 35 23.7257 35 22.9048V1.85714C35 1.3646 34.7951 0.892226 34.4305 0.543944C34.0658 0.195662 33.5713 0 33.0556 0ZM28.0567 3.71429L17.5 12.9567L6.94329 3.71429H28.0567ZM3.88889 22.2857V6.07905L16.1859 16.8458C16.5445 17.1599 17.0134 17.3342 17.5 17.3342C17.9866 17.3342 18.4555 17.1599 18.8141 16.8458L31.1111 6.07905V22.2857H3.88889Z" fill="black"/>
</svg>
