<svg width="35" height="34" viewBox="0 0 35 34" fill="none" xmlns="http://www.w3.org/2000/svg">
<path d="M34.9796 25.6835C34.6676 27.9871 33.503 30.1015 31.7034 31.632C29.9038 33.1624 27.5922 34.0041 25.2004 34C11.3052 34 1.58354e-05 23.0179 1.58354e-05 9.51975C-0.0042717 7.19632 0.862233 4.95082 2.43769 3.20265C4.01315 1.45448 6.18982 0.323181 8.56116 0.0200562C9.16082 -0.0510709 9.76807 0.0681019 10.2923 0.359785C10.8165 0.651468 11.2295 1.10002 11.4697 1.63847L15.1658 9.65405V9.67445C15.3497 10.0866 15.4256 10.5366 15.3869 10.9843C15.3481 11.4319 15.1958 11.8633 14.9435 12.2398C14.912 12.2857 14.8788 12.3282 14.8438 12.3707L11.2002 16.5663C12.511 19.1537 15.297 21.8364 17.9956 23.1131L22.2551 19.5923C22.2969 19.5582 22.3408 19.5264 22.3864 19.4971C22.7737 19.2462 23.2192 19.0931 23.6828 19.0515C24.1463 19.0099 24.6132 19.0813 25.0412 19.2591L25.0639 19.2693L33.3083 22.8581C33.8636 23.0906 34.3265 23.4915 34.6277 24.0008C34.929 24.5101 35.0524 25.1004 34.9796 25.6835Z" fill="black"/>
</svg>
