<svg width="81" height="44" viewBox="0 0 81 44" fill="none" xmlns="http://www.w3.org/2000/svg">
<path d="M21.7457 7.38956V4.72727H34.2891V7.38956H29.6133V20H26.4215V7.38956H21.7457ZM39.8541 20.2237C38.6759 20.2237 37.6617 19.9851 36.8115 19.5078C35.9664 19.0256 35.3151 18.3445 34.8577 17.4645C34.4003 16.5795 34.1716 15.533 34.1716 14.3249C34.1716 13.1467 34.4003 12.1126 34.8577 11.2227C35.3151 10.3327 35.9589 9.6392 36.7892 9.14204C37.6244 8.64489 38.6038 8.39631 39.7274 8.39631C40.483 8.39631 41.1865 8.51811 41.8378 8.76172C42.4941 9.00035 43.0658 9.3608 43.553 9.84304C44.0452 10.3253 44.428 10.9318 44.7014 11.6626C44.9749 12.3885 45.1116 13.2386 45.1116 14.2131V15.0856H35.4394V13.1168H42.1212C42.1212 12.6594 42.0218 12.2543 41.8229 11.9013C41.624 11.5483 41.3481 11.2724 40.9951 11.0735C40.6471 10.8697 40.2419 10.7678 39.7796 10.7678C39.2973 10.7678 38.8698 10.8796 38.4969 11.1033C38.129 11.3221 37.8406 11.6179 37.6318 11.9908C37.423 12.3587 37.3161 12.7688 37.3112 13.2212V15.093C37.3112 15.6598 37.4156 16.1495 37.6244 16.5621C37.8382 16.9748 38.1389 17.293 38.5267 17.5167C38.9145 17.7404 39.3744 17.8523 39.9063 17.8523C40.2593 17.8523 40.5825 17.8026 40.8758 17.7031C41.1691 17.6037 41.4202 17.4545 41.629 17.2557C41.8378 17.0568 41.9969 16.8132 42.1063 16.5249L45.0445 16.7188C44.8953 17.4247 44.5896 18.0412 44.1272 18.5682C43.6698 19.0902 43.0782 19.4979 42.3524 19.7912C41.6315 20.0795 40.7987 20.2237 39.8541 20.2237ZM47.1847 20V8.54545H50.2646V10.544H50.384C50.5928 9.8331 50.9433 9.29616 51.4355 8.93324C51.9276 8.56534 52.4944 8.38139 53.1357 8.38139C53.2948 8.38139 53.4664 8.39133 53.6503 8.41122C53.8343 8.43111 53.9958 8.45845 54.135 8.49325V11.3121C53.9859 11.2674 53.7796 11.2276 53.5161 11.1928C53.2526 11.158 53.0115 11.1406 52.7927 11.1406C52.3254 11.1406 51.9078 11.2425 51.5399 11.4464C51.1769 11.6452 50.8886 11.9237 50.6748 12.2816C50.466 12.6396 50.3616 13.0522 50.3616 13.5195V20H47.1847ZM63.123 15.1229V8.54545H66.2999V20H63.2498V17.9194H63.1305C62.872 18.5906 62.4419 19.13 61.8404 19.5376C61.2438 19.9453 60.5154 20.1491 59.6554 20.1491C58.8897 20.1491 58.2161 19.9751 57.6344 19.6271C57.0527 19.2791 56.5978 18.7844 56.2697 18.1431C55.9466 17.5018 55.7825 16.7337 55.7775 15.8388V8.54545H58.9544V15.272C58.9593 15.9482 59.1408 16.4826 59.4988 16.8754C59.8567 17.2681 60.3365 17.4645 60.938 17.4645C61.3208 17.4645 61.6788 17.3775 62.0119 17.2035C62.345 17.0245 62.6135 16.761 62.8173 16.413C63.0261 16.065 63.128 15.6349 63.123 15.1229ZM74.0015 24.5341C72.9724 24.5341 72.0899 24.3924 71.3541 24.109C70.6233 23.8306 70.0416 23.4503 69.6091 22.968C69.1766 22.4858 68.8957 21.9439 68.7664 21.3423L71.7046 20.9471C71.7941 21.1758 71.9358 21.3896 72.1297 21.5884C72.3236 21.7873 72.5796 21.9464 72.8978 22.0657C73.221 22.19 73.6137 22.2521 74.0761 22.2521C74.7671 22.2521 75.3364 22.0831 75.7838 21.745C76.2362 21.4119 76.4624 20.8526 76.4624 20.0671V17.9716H76.3282C76.189 18.2898 75.9802 18.5906 75.7018 18.8739C75.4234 19.1573 75.0654 19.3885 74.6279 19.5675C74.1904 19.7464 73.6684 19.8359 73.0619 19.8359C72.2018 19.8359 71.4188 19.6371 70.7128 19.2393C70.0118 18.8366 69.4525 18.2227 69.0349 17.3974C68.6222 16.5671 68.4159 15.5181 68.4159 14.2504C68.4159 12.9528 68.6272 11.869 69.0498 10.9989C69.4724 10.1289 70.0342 9.47763 70.7352 9.0451C71.4411 8.61257 72.2142 8.39631 73.0544 8.39631C73.6958 8.39631 74.2327 8.50568 74.6652 8.72443C75.0977 8.93821 75.4458 9.20668 75.7093 9.52983C75.9777 9.84801 76.184 10.1612 76.3282 10.4695H76.4475V8.54545H79.602V20.1119C79.602 21.0863 79.3634 21.9016 78.8861 22.5579C78.4088 23.2141 77.7476 23.7063 76.9024 24.0344C76.0622 24.3675 75.0953 24.5341 74.0015 24.5341ZM74.0686 17.4496C74.5807 17.4496 75.0132 17.3228 75.3662 17.0692C75.7242 16.8107 75.9976 16.4428 76.1865 15.9656C76.3804 15.4833 76.4774 14.9066 76.4774 14.2354C76.4774 13.5643 76.3829 12.9826 76.194 12.4904C76.0051 11.9933 75.7316 11.608 75.3737 11.3345C75.0157 11.0611 74.5807 10.9244 74.0686 10.9244C73.5466 10.9244 73.1066 11.0661 72.7487 11.3494C72.3907 11.6278 72.1198 12.0156 71.9358 12.5128C71.7519 13.0099 71.6599 13.5842 71.6599 14.2354C71.6599 14.8967 71.7519 15.4684 71.9358 15.9506C72.1247 16.4279 72.3957 16.7983 72.7487 17.0618C73.1066 17.3203 73.5466 17.4496 74.0686 17.4496Z" fill="black"/>
<line x1="1" y1="33.5" x2="81" y2="33.5" stroke="black"/>
<line x1="11.3536" y1="23.3536" x2="1.35355" y2="33.3536" stroke="black"/>
<line y1="-0.5" x2="14.1421" y2="-0.5" transform="matrix(0.707107 0.707107 0.707107 -0.707107 1 33)" stroke="black"/>
</svg>
