<svg width="81" height="44" viewBox="0 0 81 44" fill="none" xmlns="http://www.w3.org/2000/svg">
<path d="M22.0142 6.3679V4.72727H33.4688V6.3679H28.6662V20H26.8168V6.3679H22.0142ZM39.2259 20.2386C38.1222 20.2386 37.1701 19.995 36.3697 19.5078C35.5742 19.0156 34.9602 18.3295 34.5277 17.4496C34.1001 16.5646 33.8864 15.5355 33.8864 14.3622C33.8864 13.1889 34.1001 12.1548 34.5277 11.2599C34.9602 10.3601 35.5618 9.65909 36.3324 9.15696C37.108 8.64986 38.0128 8.39631 39.0469 8.39631C39.6435 8.39631 40.2326 8.49574 40.8143 8.6946C41.396 8.89347 41.9254 9.21662 42.4027 9.66406C42.88 10.1065 43.2603 10.6932 43.5437 11.424C43.8271 12.1548 43.9688 13.0547 43.9688 14.1236V14.8693H35.1392V13.348H42.179C42.179 12.7017 42.0497 12.125 41.7912 11.6179C41.5376 11.1108 41.1747 10.7106 40.7024 10.4173C40.2351 10.1239 39.6832 9.97727 39.0469 9.97727C38.3459 9.97727 37.7393 10.1513 37.2273 10.4993C36.7202 10.8423 36.3299 11.2898 36.0565 11.8416C35.783 12.3935 35.6463 12.9851 35.6463 13.6165V14.6307C35.6463 15.4957 35.7955 16.229 36.0938 16.8306C36.397 17.4272 36.8171 17.8821 37.354 18.1953C37.891 18.5036 38.5149 18.6577 39.2259 18.6577C39.6882 18.6577 40.1058 18.593 40.4787 18.4638C40.8565 18.3295 41.1822 18.1307 41.4556 17.8672C41.729 17.5987 41.9403 17.2656 42.0895 16.8679L43.7898 17.3452C43.6108 17.9219 43.31 18.429 42.8874 18.8665C42.4648 19.299 41.9428 19.6371 41.3214 19.8807C40.6999 20.1193 40.0014 20.2386 39.2259 20.2386ZM46.646 20V8.54545H48.3462V10.2756H48.4656C48.6744 9.70881 49.0522 9.24893 49.5991 8.89595C50.146 8.54297 50.7624 8.36648 51.4485 8.36648C51.5778 8.36648 51.7393 8.36896 51.9332 8.37393C52.1271 8.37891 52.2738 8.38636 52.3732 8.39631V10.1861C52.3136 10.1712 52.1768 10.1488 51.9631 10.119C51.7543 10.0842 51.533 10.0668 51.2994 10.0668C50.7425 10.0668 50.2454 10.1836 49.8079 10.4173C49.3754 10.646 49.0323 10.9641 48.7788 11.3718C48.5302 11.7745 48.4059 12.2344 48.4059 12.7514V20H46.646ZM61.6782 15.3168V8.54545H63.4381V20H61.6782V18.0611H61.5589C61.2904 18.6428 60.8728 19.1374 60.306 19.5451C59.7393 19.9478 59.0233 20.1491 58.1583 20.1491C57.4424 20.1491 56.806 19.9925 56.2492 19.6793C55.6924 19.3612 55.2549 18.8839 54.9367 18.2475C54.6185 17.6062 54.4594 16.7983 54.4594 15.8239V8.54545H56.2194V15.7045C56.2194 16.5398 56.453 17.206 56.9204 17.7031C57.3927 18.2003 57.9942 18.4489 58.7251 18.4489C59.1626 18.4489 59.6075 18.337 60.0599 18.1133C60.5173 17.8896 60.9001 17.5465 61.2084 17.0842C61.5216 16.6218 61.6782 16.0327 61.6782 15.3168ZM71.2852 24.5341C70.435 24.5341 69.7042 24.4247 69.0927 24.206C68.4812 23.9922 67.9716 23.7088 67.5639 23.3558C67.1612 23.0078 66.8406 22.6349 66.6019 22.2372L68.0039 21.2528C68.163 21.4616 68.3643 21.7003 68.608 21.9688C68.8516 22.2422 69.1847 22.4783 69.6072 22.6772C70.0348 22.881 70.5941 22.983 71.2852 22.983C72.2099 22.983 72.973 22.7592 73.5746 22.3118C74.1761 21.8643 74.4769 21.1634 74.4769 20.2088V17.8821H74.3278C74.1985 18.0909 74.0146 18.3494 73.7759 18.6577C73.5423 18.9609 73.2042 19.2319 72.7617 19.4705C72.3242 19.7042 71.7326 19.821 70.9869 19.821C70.0621 19.821 69.2319 19.6023 68.4961 19.1648C67.7653 18.7273 67.1861 18.0909 66.7585 17.2557C66.3359 16.4205 66.1246 15.4062 66.1246 14.2131C66.1246 13.0398 66.331 12.0181 66.7436 11.1481C67.1563 10.2731 67.7305 9.59695 68.4663 9.11967C69.2021 8.63743 70.0522 8.39631 71.0167 8.39631C71.7624 8.39631 72.354 8.5206 72.7915 8.76918C73.234 9.01278 73.5721 9.29119 73.8058 9.6044C74.0444 9.91264 74.2283 10.1662 74.3576 10.3651H74.5366V8.54545H76.2369V20.3281C76.2369 21.3125 76.0131 22.1129 75.5657 22.7294C75.1232 23.3509 74.5266 23.8058 73.7759 24.0941C73.0302 24.3874 72.1999 24.5341 71.2852 24.5341ZM71.2255 18.2401C71.9315 18.2401 72.5281 18.0785 73.0153 17.7553C73.5025 17.4322 73.8729 16.9673 74.1264 16.3608C74.38 15.7543 74.5067 15.0284 74.5067 14.1832C74.5067 13.358 74.3825 12.6296 74.1339 11.9982C73.8853 11.3668 73.5174 10.8722 73.0302 10.5142C72.543 10.1562 71.9414 9.97727 71.2255 9.97727C70.4798 9.97727 69.8583 10.1662 69.3612 10.544C68.869 10.9219 68.4986 11.429 68.25 12.0653C68.0064 12.7017 67.8846 13.4077 67.8846 14.1832C67.8846 14.9787 68.0089 15.6822 68.2575 16.2937C68.511 16.9002 68.8839 17.3775 69.3761 17.7255C69.8732 18.0685 70.4897 18.2401 71.2255 18.2401Z" fill="black"/>
<line x1="1" y1="33.5" x2="81" y2="33.5" stroke="black"/>
<line x1="11.3536" y1="23.3536" x2="1.35355" y2="33.3536" stroke="black"/>
<line y1="-0.5" x2="14.1421" y2="-0.5" transform="matrix(0.707107 0.707107 0.707107 -0.707107 1 33)" stroke="black"/>
</svg>
