<svg width="1440" height="961" viewBox="0 0 1440 961" fill="none" xmlns="http://www.w3.org/2000/svg">
<g clip-path="url(#clip0_1_23)">
<rect width="1440" height="960" transform="translate(0 0.499756)" fill="#FAEBCC"/>
<path d="M500.923 43.6059L486.46 32.7592C479.401 27.4644 473.933 20.3301 470.656 12.1366C464.034 -4.4184 448.8 -15.954 431.069 -17.8392L-115.769 -75.98C-174.848 -82.2614 -226.341 -35.9525 -226.341 23.4595V890.911C-226.341 946.139 -181.57 990.911 -126.341 990.911H604.638C634.363 990.911 661.538 974.116 674.832 947.528L698.495 892.314L728.12 831.323C730.713 825.983 732.826 820.422 734.434 814.707L746.03 773.474C748.509 764.663 749.765 755.553 749.765 746.4V704.981V643.842C749.765 634.689 748.509 625.579 746.03 616.768L735.753 580.225C733.275 571.414 732.018 562.304 732.018 553.151V520.799C732.018 512.161 733.137 503.56 735.347 495.209L746.436 453.32C748.646 444.969 749.765 436.368 749.765 427.73V394.595C749.765 385.957 748.646 377.356 746.436 369.006L734.062 322.262C732.702 317.121 730.933 312.097 728.773 307.237L717.215 281.232C711.377 268.096 702.775 256.373 691.996 246.862L686.658 242.152C678.822 235.238 669.951 229.595 660.368 225.428L643.941 218.286C634.358 214.119 625.487 208.477 617.651 201.563L604.885 190.299C598.953 185.064 593.662 179.143 589.124 172.661L568.348 142.98L540.74 93.6815L524.767 69.1071C518.376 59.2743 510.305 50.6424 500.923 43.6059Z" fill="white" stroke="white"/>
<path d="M375.359 26.8314L367.984 19.1055C364.849 15.8212 362.447 11.909 360.936 7.62741C356.529 -4.86095 344.903 -13.3591 331.666 -13.7676L-129.841 -28.0093C-187.407 -29.7857 -234.571 17.3063 -232.882 74.8745L-209.493 872.444C-207.884 927.328 -162.322 970.649 -107.426 969.491L600.046 954.56C622.571 954.085 642.27 939.26 648.963 917.747L665.477 874.397C667.271 869.688 669.418 865.122 671.9 860.737L692.183 824.904L704.589 797.837C708.044 790.299 710.548 782.36 712.043 774.204L715.639 754.592C717.597 743.911 717.802 732.982 716.247 722.235L709.791 677.635L696.985 618.407L693.756 595.263C692.711 587.772 692.519 580.187 693.183 572.654L696.985 529.565V504.84C696.985 493.656 698.862 482.552 702.536 471.988L709.791 451.128L715.016 432.129C717.392 423.491 718.596 414.573 718.596 405.614V401.045C718.596 393.373 717.713 385.727 715.964 378.257L711.828 360.582C710.473 354.793 708.604 349.137 706.245 343.68L696.985 322.268L683.715 297.768C678.72 288.546 672.305 280.168 664.707 272.94L650.853 259.762C645.871 255.023 640.414 250.811 634.567 247.192L599.457 225.457C595.116 222.77 590.576 220.419 585.877 218.425L556.881 206.124C545.793 201.42 535.645 194.751 526.928 186.439L511.067 171.316C507.491 167.906 504.173 164.236 501.139 160.336L488.888 144.584L472.92 122.229C470.233 118.467 467.949 114.434 466.106 110.194C462.652 102.251 457.667 95.0657 451.436 89.0492L437.664 75.7518L405.648 50.9402L385.455 35.7953C381.849 33.0905 378.472 30.0923 375.359 26.8314Z" fill="url(#paint0_linear_1_23)"/>
<path d="M214.633 0.518959L200.713 -14.7937C198.227 -17.5282 196.129 -20.591 194.476 -23.8962C187.901 -37.0453 174.699 -45.5821 160.01 -46.1834L-161.714 -59.3533C-218.5 -61.6779 -265.804 -16.2701 -265.804 40.5629V903.913C-265.804 959.141 -221.033 1003.91 -165.804 1003.91H428.948C466.023 1003.91 498.682 979.527 509.214 943.98C511.389 936.641 514.559 929.635 518.638 923.158L551.491 870.979C555.28 864.961 558.416 858.556 560.847 851.872L572.205 820.637C576.188 809.683 578.226 798.118 578.226 786.462V754.079C578.226 745.38 577.091 736.718 574.849 728.313L560.567 674.756C558.326 666.35 557.191 657.688 557.191 648.989V575.324V523.825C557.191 516.114 558.083 508.428 559.849 500.921L575.567 434.118C577.334 426.611 578.226 418.926 578.226 411.214V380.693C578.226 365.168 574.611 349.857 567.668 335.971L546.037 292.708C542.963 286.561 539.264 280.748 534.999 275.359L508.164 241.463C497.22 227.639 482.816 216.955 466.412 210.492L412.685 189.327C407.363 187.231 402.23 184.681 397.343 181.706L361.694 160.007C350.158 152.985 340.164 143.7 332.315 132.711L317.917 112.554L295.808 71.7357C287.885 57.1091 276.438 44.6899 262.505 35.603L234.002 17.0137C226.87 12.3624 220.361 6.81934 214.633 0.518959Z" fill="url(#paint1_linear_1_23)"/>
<ellipse cx="276.306" cy="32.1996" rx="12.4805" ry="4.02734" transform="rotate(31.5075 276.306 32.1996)" fill="#FEFFFF"/>
<ellipse cx="649.445" cy="306.459" rx="20.7112" ry="9.50906" transform="rotate(31.5075 649.445 306.459)" fill="#FEFFFF"/>
<ellipse cx="626.417" cy="812.738" rx="20.7112" ry="9.50906" transform="rotate(136.627 626.417 812.738)" fill="#FEFFFF"/>
<ellipse cx="608.857" cy="792.828" rx="8.28176" ry="3.80238" transform="rotate(136.627 608.857 792.828)" fill="#FEFFFF"/>
<ellipse cx="627.329" cy="276.605" rx="5.53178" ry="2.53979" transform="rotate(31.5075 627.329 276.605)" fill="#FEFFFF"/>
<g clip-path="url(#clip1_1_23)">
<path d="M1187.36 370.039C1189.04 370.779 1190.68 371.675 1192.42 372.235C1199.78 374.605 1207.01 377.449 1214.91 377.835C1218.68 378.019 1220.24 379.588 1220.98 382.677C1221.75 385.883 1220.55 389.613 1217.83 391.146C1216.32 392 1214.39 392.586 1212.67 392.535C1204.51 392.281 1196.35 391.713 1188.2 391.364C1181.61 391.083 1175.93 387.089 1174.02 381.179C1172.92 377.773 1172.92 374.409 1175.5 371.702C1178.2 368.873 1181.74 368.772 1185.35 369.492C1186.02 369.626 1186.67 369.912 1187.32 370.128C1187.33 370.097 1187.35 370.068 1187.36 370.039ZM1207.86 378.109C1208.6 378.992 1209.15 379.395 1209.33 379.926C1209.55 380.614 1209.49 381.4 1209.54 382.144C1208.67 382.127 1207.71 382.345 1206.98 382.024C1206.37 381.761 1206.04 380.872 1205.58 380.258C1204.99 379.464 1204.55 378.197 1203.79 377.959C1200.67 376.988 1197.61 375.143 1194.13 377.135C1192.51 378.07 1190.62 378.531 1188.85 379.209C1188.63 379.653 1188.41 380.097 1188.18 380.539C1189.33 382.175 1190.6 383.737 1191.59 385.463C1194.82 391.07 1198.67 391.933 1204.52 389.098C1205.3 388.719 1206.19 388.564 1207.03 388.306C1207.21 389.178 1207.38 390.052 1207.57 391.018C1209.25 391.21 1211.06 391.498 1212.89 391.605C1215.55 391.757 1217.67 390.635 1219.13 388.432C1221.8 384.418 1219.61 379.421 1214.91 378.796C1212.73 378.505 1210.53 378.362 1207.85 378.107L1207.86 378.109ZM1183.44 378.77C1186.7 377.19 1189.94 375.619 1193.65 373.821C1190.84 372.675 1188.5 371.574 1186.06 370.783C1184.63 370.322 1183.04 370.156 1181.54 370.227C1176.43 370.467 1173.68 374.048 1174.56 379.126C1175.93 386.941 1184.57 392.129 1192.31 390.144C1190.88 388.191 1189.31 386.146 1187.85 384.028C1186.49 382.048 1186.19 379.22 1183.45 378.776L1183.44 378.77Z" fill="#AB1A1A"/>
<path d="M1227.13 367.913C1225.4 373.034 1220.72 374.656 1216.24 371.673C1215.1 370.91 1213.95 370.149 1212.84 369.34C1210.61 367.712 1208.39 366.17 1205.56 365.662C1204.17 365.413 1202.89 364.538 1201.55 363.969C1199.39 363.055 1197.21 362.193 1195.06 361.244C1191.93 359.87 1188.43 358.958 1185.81 356.926C1180.85 353.107 1181.27 347.383 1186.24 343.532C1191.48 339.468 1199.17 339.75 1204.79 344.102C1211.25 349.104 1217.75 354.04 1224.26 358.977C1227.18 361.188 1228.29 364.513 1227.13 367.915L1227.13 367.913ZM1219.32 356.896C1218.56 357.596 1217.99 358.125 1217.42 358.653C1216.89 357.981 1216.29 357.349 1215.85 356.62C1215.26 355.636 1214.94 354.476 1214.26 353.571C1212.51 351.222 1210.36 349.239 1207.15 350.042C1204.08 350.811 1201.11 351.985 1197.96 353.026C1199.09 356.831 1200.01 360.352 1202.8 362.3C1205.55 364.221 1208.98 365.374 1212.45 363.378C1212.51 363.34 1212.63 363.309 1212.68 363.339C1213.49 363.88 1214.29 364.429 1215.1 364.978C1214.52 365.513 1214 366.145 1213.34 366.556C1212.89 366.837 1212.26 366.812 1211.21 367.024C1213.87 368.787 1216.04 370.46 1218.43 371.718C1219.43 372.243 1221.01 372.242 1222.11 371.861C1224.6 371.006 1226.11 369.025 1226.51 366.422C1226.91 363.806 1225.95 361.572 1223.85 359.952C1222.4 358.836 1220.82 357.895 1219.32 356.893L1219.32 356.896ZM1207.2 347.498C1206.35 346.786 1205.17 345.702 1203.9 344.727C1198.91 340.878 1191.93 340.643 1187.2 344.131C1182.19 347.83 1181.97 353.388 1187.16 356.809C1190.13 358.762 1193.76 359.706 1197.1 361.104C1197.2 360.915 1197.31 360.726 1197.42 360.537C1195.93 357.234 1194.44 353.926 1193.09 350.91C1193.92 350.891 1195.28 351.115 1196.48 350.788C1200.13 349.793 1203.71 348.584 1207.2 347.498Z" fill="#AB1A1A"/>
<path d="M1207.86 378.109C1210.53 378.364 1212.73 378.506 1214.92 378.798C1219.61 379.427 1221.8 384.421 1219.14 388.433C1217.68 390.637 1215.56 391.759 1212.9 391.606C1211.07 391.499 1209.25 391.211 1207.58 391.019C1207.38 390.054 1207.21 389.178 1207.04 388.307C1206.2 388.565 1205.3 388.718 1204.52 389.099C1198.68 391.93 1194.82 391.072 1191.6 385.464C1190.61 383.738 1189.33 382.177 1188.19 380.541C1188.41 380.097 1188.63 379.653 1188.85 379.21C1190.62 378.532 1192.52 378.067 1194.14 377.136C1197.61 375.144 1200.68 376.989 1203.79 377.961C1204.56 378.199 1205 379.467 1205.59 380.26C1206.05 380.873 1206.38 381.762 1206.98 382.026C1207.72 382.341 1208.68 382.128 1209.54 382.145C1209.49 381.4 1209.56 380.616 1209.33 379.927C1209.16 379.396 1208.6 378.994 1207.86 378.11L1207.86 378.109Z" fill="#FEDFDF"/>
<path d="M1183.44 378.77C1186.19 379.214 1186.49 382.042 1187.85 384.022C1189.31 386.146 1190.88 388.19 1192.31 390.138C1184.57 392.129 1175.93 386.941 1174.56 379.126C1173.68 374.048 1176.43 370.467 1181.54 370.232C1183.04 370.162 1184.64 370.328 1186.06 370.787C1188.5 371.574 1190.84 372.678 1193.65 373.825C1189.94 375.623 1186.7 377.194 1183.44 378.774L1183.44 378.77Z" fill="#FEDFDF"/>
<path d="M1219.32 356.892C1220.82 357.894 1222.4 358.835 1223.84 359.951C1225.94 361.57 1226.91 363.804 1226.51 366.421C1226.11 369.019 1224.6 371.005 1222.11 371.86C1221.01 372.237 1219.43 372.241 1218.43 371.717C1216.04 370.458 1213.86 368.785 1211.21 367.022C1212.25 366.811 1212.89 366.835 1213.34 366.555C1213.99 366.143 1214.51 365.515 1215.1 364.977C1214.29 364.429 1213.48 363.879 1212.67 363.338C1212.63 363.309 1212.51 363.34 1212.45 363.377C1208.97 365.373 1205.55 364.221 1202.8 362.299C1200.01 360.352 1199.09 356.83 1197.96 353.025C1201.11 351.983 1204.07 350.805 1207.15 350.041C1210.35 349.238 1212.5 351.22 1214.26 353.569C1214.93 354.475 1215.26 355.635 1215.85 356.618C1216.28 357.347 1216.89 357.975 1217.41 358.651C1217.98 358.123 1218.55 357.595 1219.31 356.895L1219.32 356.892Z" fill="#FEDFDF"/>
<path d="M1207.2 347.495C1203.72 348.581 1200.13 349.79 1196.49 350.785C1195.28 351.113 1193.92 350.888 1193.1 350.907C1194.45 353.923 1195.94 357.226 1197.42 360.534C1197.32 360.723 1197.21 360.912 1197.1 361.101C1193.77 359.703 1190.14 358.761 1187.17 356.806C1181.98 353.381 1182.19 347.827 1187.21 344.128C1191.94 340.64 1198.92 340.875 1203.9 344.724C1205.17 345.703 1206.35 346.782 1207.2 347.495Z" fill="#FEDFDF"/>
</g>
<path d="M1251.32 603.358L1325.19 405.871L1328.52 409.475L1354.83 407.859L1280.14 613.161L1251.32 603.358Z" fill="#AB1A1A" stroke="#AB1A1A"/>
<path d="M1308.7 623.773L1386.54 406.312L1355.19 407.726L1280.41 613.787L1308.7 623.773Z" fill="white"/>
<path d="M1386.67 405.951L1418.68 404.867L1334.87 633.804L1308.71 623.791L1386.67 405.951Z" fill="#AB1A1A"/>
<path d="M1362.17 643.866L1451.07 402.252L1418.51 404.801L1333.44 633.276L1362.17 643.866Z" fill="white"/>
<path d="M1425.83 164.645L1421.45 163.488L1329.12 409.021L1479.08 401.913L1445.71 159.425L1425.83 164.645Z" fill="#AB1A1A"/>
<path d="M1405.74 142.644L1409.3 140.029L1162.75 50.7913L1169.55 264.388L1406.3 154.12L1406.06 152.99L1405.01 147.905L1405.74 142.644Z" fill="#DE8282"/>
<path d="M1416.68 128.697L1304.09 -108.217L1162.77 51.1175L1407.14 139.09L1408.9 136.021L1412.15 131.442L1416.68 128.697Z" fill="#AB1A1A"/>
<path d="M1169.78 264.281L1405.5 152.721L1408.27 155.24L1414.54 161.254L1422.03 163.576L1329.47 409.077L1169.78 264.281Z" fill="#F04B4B"/>
<path d="M1304.09 -108.222L1492.78 -102.346L1433.19 130.523L1418.04 127.325L1417.42 130.523L1304.09 -108.222Z" fill="#DE8282"/>
<ellipse cx="1423.39" cy="148.058" rx="21.8261" ry="21.8045" transform="rotate(-11.7736 1423.39 148.058)" fill="#720606"/>
<path d="M1171.25 574.504L1253.1 341.061L1278.47 363.951L1199.17 584.423L1171.25 574.504Z" fill="white" stroke="white"/>
<path d="M1302.31 384.882L1278.77 363.659L1199.47 585.056L1224.87 594.426L1302.31 384.882Z" fill="#AB1A1A"/>
<path d="M1324.78 405.569L1302.26 384.96L1224.81 594.547L1250.66 603.618L1324.78 405.569Z" fill="white"/>
<path opacity="0.35" d="M1184.03 329.416L1171.85 271.024L1169.64 264.145L1329.23 408.859L1486.75 401.49L1495.65 449.508L1322.9 465.204L1184.03 329.416Z" fill="#5B5B59"/>
<path d="M1174.01 583.64L1176.79 577.709L1362.7 644.283L1450.52 403.482L1459.98 403.039L1368.03 654.259L1174.01 583.64Z" fill="#7A736A" fill-opacity="0.3"/>
<path d="M1433.22 128.83L1450.53 64.1977L1459.14 102.873L1440.67 135.038L1439.71 133.987L1435.89 130.549L1433.22 128.83Z" fill="#F04B4B"/>
<g clip-path="url(#clip2_1_23)">
<path d="M164.709 561.736C170.549 563.833 176.321 566.131 182.236 568.002C216.67 578.881 250.71 579.502 284.155 564.017C299.57 556.879 314.894 549.456 330.653 543.139C342.474 538.4 354.915 535.221 366.075 531.673C366.226 531.69 365.153 531.556 363.922 531.405C363.871 530.775 363.737 530.239 363.813 529.719C366.335 512.456 369.686 495.243 368.446 477.662C367.508 464.333 364.207 451.541 358.577 439.396C358.191 438.557 357.647 437.785 356.641 436.065V454.544C351.564 451.516 347.166 447.809 346.403 441.14C346.01 441.065 345.624 440.981 345.23 440.905C343.421 448.891 341.611 456.885 339.877 464.568C331.532 458.671 332.697 442.734 343.421 430.135C338.578 431.041 334.825 433.18 332.965 437.139C331.231 440.83 330.627 445.057 329.555 448.924C325.483 442.524 325.366 433.222 329.446 427.375C333.778 421.16 339.785 420.497 346.562 422.468C346.688 422.024 346.805 421.588 346.931 421.143C342.918 419.667 338.905 418.199 335.009 416.764C339.215 411.119 344.87 410.985 352.268 416.697C356.918 408.813 361.752 405.994 369.091 407.361C366.963 408.913 364.969 410.037 363.402 411.597C361.936 413.065 360.914 414.986 360.068 417.117C367.122 412.654 374.336 409.618 382.596 411.975C387.213 413.3 390.949 416.144 393.488 420.623C380.021 418.47 371.716 418.322 368.572 420.178C372.258 420.95 376.397 421.244 380.041 422.737C384.305 424.481 385.495 428.667 385.922 433.356C379.094 431.1 372.61 428.969 366.125 426.83C365.899 427.149 365.664 427.459 365.438 427.778C373.012 433.633 375.006 441.501 374.436 451.609C370.666 447.633 367.658 444.454 364.651 441.274C364.265 441.333 363.888 441.392 363.503 441.459C379.706 469.584 377.637 499.463 372.735 530.532C385.503 509.017 393.521 486.428 402.352 464.098C399.855 466.741 397.358 469.391 394.711 472.201C392.817 466.237 395.473 458.99 400.668 453.907C398.154 454.544 395.607 455.056 393.136 455.845C390.631 456.641 388.201 457.698 385.73 458.655C385.043 451.718 389.374 448.631 399.93 448.866C392.893 444.957 386.283 447.037 379.421 448.832C385.026 440.125 392.507 439.337 405.535 445.091C403.399 442.885 401.263 440.679 399.218 438.573C404.245 437.5 407.387 439.228 410.922 444.881C413.905 444.093 416.67 442.902 419.493 442.776C421.303 442.692 423.179 444.168 425.902 445.318C421.764 446.794 418.655 447.901 415.555 449.008C415.631 449.369 415.698 449.721 415.773 450.082C420.934 448.589 425.617 449.008 428.868 453.689C432.613 459.074 431.867 464.702 428.994 470.624C428.097 464.015 426.539 457.967 419.744 456.474C421.412 460.668 423.657 465.063 424.872 469.735C426.154 474.667 424.344 479.214 421.135 483.349C419.728 477.117 418.396 471.254 417.097 465.474C414.123 469.014 411.408 472.243 408.04 476.253V462.194C399.922 485.203 392.063 507.49 384.113 530.021C404.773 528.695 424.579 531.866 443.127 542.888C442.34 543.005 441.929 543.207 441.678 543.081C415.028 530.088 387.506 530.91 359.615 537.897C336.517 543.685 314.81 553.188 293.496 563.506C272.794 573.53 251.296 579.41 228.19 578.487C206.315 577.615 185.562 572.095 165.706 562.994C165.279 562.801 164.91 562.466 164.517 562.197C164.592 562.046 164.659 561.887 164.734 561.736H164.709Z" fill="#EBF8F5"/>
<path d="M490.867 524.973C492.618 515.73 495.09 506.561 496.003 497.242C501.08 445.84 469.604 388.7 409.399 376.496C378.518 370.238 348.474 373.467 320.685 389.187C293.389 404.629 277.462 428.896 269.755 458.808C264.342 479.829 263.89 501.017 269.436 522.163C269.57 522.675 269.545 523.229 268.959 523.933C268.121 520.897 267.166 517.877 266.47 514.807C265.767 511.687 265.138 508.524 264.77 505.345C261.159 474.175 266.713 444.942 284.115 418.554C301.097 392.81 325.485 378.005 355.453 372.293C381.199 367.386 406.668 368.46 430.939 379.096C466.018 394.471 487.038 421.816 495.685 458.749C500.728 480.29 499.622 501.696 491.604 522.532C491.286 523.363 490.85 524.16 490.473 524.965C490.599 524.965 490.733 524.965 490.859 524.973H490.867Z" fill="#EBF8F5"/>
<g clip-path="url(#clip3_1_23)">
<path d="M443.062 518.338C442.819 520.097 442.866 521.929 442.324 523.622C442.206 523.992 442.042 524.377 441.716 524.59C441.297 524.864 440.716 524.766 440.313 524.473C439.909 524.179 439.651 523.727 439.444 523.273C436.897 517.682 440.359 510.597 437.458 505.18C435.222 501.002 429.91 499.273 427.452 495.222C427.375 495.093 427.299 494.959 427.274 494.81C427.207 494.39 427.604 494.007 428.023 493.933C428.442 493.86 428.867 494.005 429.266 494.156C430.489 494.619 431.686 495.149 432.853 495.736C434.68 496.66 436.445 497.737 438.381 498.4C440.596 499.162 442.875 499.055 445.167 498.817C449.037 498.411 451.929 496.555 455.075 494.461C455.822 493.962 456.602 493.453 457.488 493.31C458.375 493.168 459.404 493.499 459.792 494.309C460.071 494.356 460.349 494.403 460.625 494.447C461.88 494.657 463.767 497.866 464.66 498.788C466.059 500.23 467.681 501.561 469.673 502.053C470.282 502.202 470.908 502.271 471.525 502.376C472.053 502.467 472.574 502.587 473.093 502.712C476.908 503.626 480.508 505.187 483.269 508.051C484.044 508.857 484.781 510.028 484.269 511.022C483.38 511.227 482.413 511.076 481.631 510.608C481.259 510.386 480.931 510.101 480.584 509.843C480.009 509.415 479.376 509.068 478.708 508.81C478.084 508.57 477.262 508.456 476.841 508.975C476.587 509.289 476.576 509.727 476.576 510.132C476.58 511.701 476.582 513.268 476.529 514.837C476.46 516.861 476.295 518.879 476.037 520.887C475.916 521.826 475.769 522.779 475.368 523.638C475.176 524.047 474.914 524.446 474.517 524.662C474.12 524.878 473.568 524.86 473.272 524.519C473.138 524.368 473.069 524.172 473.006 523.981C472.621 522.792 472.42 521.546 472.412 520.297C472.403 519.008 472.534 517.537 471.632 516.618C470.629 516.453 469.874 517.515 469.551 518.476C469.103 519.801 468.949 521.225 469.107 522.614C469.185 523.297 469.295 524.101 468.793 524.57C468.352 524.984 467.601 524.898 467.131 524.515C465.447 523.148 465.89 519.195 465.95 517.297C466.037 514.475 466.336 511.623 465.819 508.826C465.44 506.774 464.616 504.822 463.442 503.099C462.9 502.307 462.374 501.53 461.871 500.711C461.461 500.043 460.719 498.111 460.053 497.748C459.903 497.666 459.754 497.586 459.605 497.503C459.603 496.695 459.598 495.888 459.596 495.08C457.306 497.463 454.973 499.803 452.796 502.295C452.359 502.796 451.923 503.306 451.593 503.885C451.094 504.757 450.851 505.752 450.644 506.738C450.29 508.414 450.013 510.148 450.299 511.837C450.472 512.859 450.94 513.729 451.016 514.757C451.087 515.71 450.954 516.705 450.849 517.648C450.688 519.093 450.374 520.522 450.236 521.966C450.16 522.748 450.067 523.58 449.577 524.194C449.086 524.809 448.05 525.053 447.52 524.473C447.239 524.165 447.173 523.725 447.133 523.311C446.899 520.96 447.039 518.456 445.874 516.402C445.477 515.703 444.555 515.038 443.951 515.567C443.788 515.71 443.695 515.915 443.614 516.115C443.332 516.829 443.173 517.575 443.069 518.334L443.062 518.338Z" fill="#EBF8F5"/>
<path d="M423.813 496.328C424.528 495.46 425.326 494.735 426.411 494.565C427.246 496.201 426.19 498.133 425.141 499.642C424.448 500.639 423.74 501.628 423.1 502.658C422.303 503.945 421.612 505.296 421.037 506.693C419.95 509.333 419.927 512.309 420.017 515.118C420.063 516.576 420.166 518.029 420.233 519.485C420.262 520.148 420.393 520.916 420.302 521.572C420.217 522.184 419.847 522.547 419.709 523.13C419.653 523.366 419.709 523.616 419.685 523.858C419.645 524.259 419.366 524.626 418.992 524.771C417.37 525.403 416.955 523.13 417.067 522.08C417.154 521.25 417.345 520.402 417.127 519.596C417.073 519.398 416.995 519.206 416.917 519.017C416.826 518.795 416.735 518.57 416.643 518.347C416.394 517.74 416.126 517.105 415.616 516.689C415.44 516.544 415.215 516.427 414.99 516.467C414.816 516.498 414.672 516.616 414.558 516.751C414.186 517.192 414.083 517.791 413.994 518.361C413.749 519.925 413.504 521.492 413.393 523.07C413.359 523.533 413.333 524.016 413.101 524.417C412.869 524.818 412.352 525.1 411.929 524.909C411.686 524.8 411.528 524.566 411.392 524.339C410.931 523.564 410.59 522.721 410.383 521.844C410.229 521.192 410.149 520.524 410.071 519.859C410.028 519.502 409.986 519.144 409.944 518.788C409.908 518.485 409.872 518.183 409.85 517.878C409.823 517.526 409.817 517.172 409.81 516.818C409.774 515.096 410.875 507.646 407.74 508.768C406.813 509.099 405.951 509.609 405.214 510.259C405.055 510.399 404.9 510.546 404.703 510.622C404.527 510.689 404.334 510.691 404.151 510.733C403.63 510.851 403.171 511.281 402.64 511.207C402.074 511.127 401.745 510.466 401.829 509.901C401.914 509.335 402.293 508.866 402.678 508.445C403.679 507.354 404.826 506.4 406.067 505.594C407.061 504.948 408.119 504.396 409.217 503.949C409.877 503.682 410.55 503.451 411.223 503.221C411.347 503.179 411.474 503.134 411.601 503.092C413.569 502.418 415.627 502.565 417.508 501.77C418.773 501.234 419.956 500.504 420.999 499.611C421.422 499.248 421.824 498.861 422.184 498.438C422.744 497.782 423.256 497.011 423.818 496.33L423.813 496.328Z" fill="#EBF8F5"/>
<path d="M442.996 497.434C442.835 497.259 442.668 497.094 442.443 497.036C442.263 496.989 442.029 496.994 441.942 496.829C441.9 496.747 441.911 496.647 441.909 496.553C441.893 495.894 440.931 495.324 440.761 494.561C440.592 493.798 440.639 492.818 440.913 492.075C441.594 490.223 444.609 489.023 446.14 490.452C447.343 491.576 447.915 493.332 447.603 494.948C447.577 495.084 447.543 495.224 447.461 495.338C447.374 495.456 447.24 495.536 447.169 495.663C447.1 495.783 447.095 495.925 447.071 496.061C446.879 497.147 445.411 497.63 444.511 497.909C444.237 497.993 443.941 498.078 443.667 497.991C443.39 497.902 443.199 497.659 442.998 497.439L442.996 497.434Z" fill="#EBF8F5"/>
<path d="M415.973 494.501C416.127 494.841 416.515 495.031 416.813 495.275C417.713 496.017 417.814 497.37 417.564 498.507C417.475 498.919 417.348 499.322 417.19 499.709C417.105 499.916 417.007 500.123 416.853 500.286C416.626 500.524 416.287 500.653 416.12 500.935C416.073 501.016 416.038 501.111 415.962 501.165C415.888 501.218 415.79 501.22 415.699 501.22C415.227 501.225 414.754 501.229 414.282 501.236C414.07 501.236 413.852 501.238 413.658 501.156C413.46 501.071 413.306 500.909 413.159 500.749C412.818 500.379 412.464 499.987 412.339 499.5C412.317 499.413 412.301 499.32 412.241 499.253C412.154 499.155 412.003 499.139 411.916 499.041C411.838 498.955 411.834 498.828 411.834 498.71C411.831 496.566 411.807 495.914 413.629 494.701C413.828 494.592 414.035 494.499 414.255 494.436C414.801 494.285 415.378 494.347 415.942 494.41C415.951 494.441 415.962 494.472 415.975 494.501H415.973Z" fill="#EBF8F5"/>
<path d="M470.43 500.947C469.47 500.475 468.835 499.482 468.672 498.282C468.509 497.083 468.926 495.852 469.761 494.999C470.047 494.824 470.243 494.755 470.276 494.399C470.298 494.281 471.43 494.323 471.546 494.321C472.413 494.305 473.257 494.944 473.848 495.585C474.342 496.123 474.505 496.851 474.52 497.564C474.527 497.886 474.538 498.28 474.449 498.592C474.347 498.955 474.095 499.026 473.997 499.344C473.948 499.502 473.948 499.676 473.879 499.825C473.825 499.936 473.734 500.027 473.645 500.112C473.155 500.575 472.533 501.232 471.818 501.245C471.305 501.254 470.838 501.147 470.432 500.947H470.43Z" fill="#EBF8F5"/>
</g>
</g>
<path d="M86.4452 456.153C79.8494 456.153 74.8483 454.341 71.4417 450.717C68.1075 447.092 66.4405 442.526 66.4405 437.018C66.4405 433.104 67.2378 429.19 68.8324 425.276C70.4994 421.289 72.855 417.81 75.8992 414.839C78.9434 411.867 82.495 409.874 86.5539 408.859C84.307 407.264 82.6399 405.344 81.5527 403.097C80.4655 400.777 79.9219 398.349 79.9219 395.812C79.9219 392.043 80.9366 388.347 82.9661 384.723C85.068 381.099 87.931 378.163 91.5551 375.916C95.2516 373.597 99.3105 372.437 103.732 372.437C108.298 372.437 112.031 373.633 114.93 376.025C117.829 378.417 119.279 381.751 119.279 386.027C119.279 389.217 118.482 391.898 116.887 394.073C115.292 396.247 113.408 397.334 111.234 397.334C109.277 397.334 107.573 396.356 106.124 394.399C107.428 393.964 108.552 392.768 109.494 390.811C110.436 388.854 110.907 386.897 110.907 384.94C110.907 382.838 110.328 381.316 109.168 380.374C108.008 379.359 106.595 378.852 104.928 378.852C102.826 378.852 100.905 379.613 99.1655 381.135C97.4985 382.585 96.1938 384.505 95.2516 386.897C94.3093 389.217 93.8382 391.645 93.8382 394.182C93.8382 397.661 94.7442 400.741 96.5562 403.423C98.3682 406.032 101.123 407.808 104.819 408.75C101.123 409.547 97.7884 411.359 94.8167 414.186C91.845 417.013 89.5256 420.311 87.8585 424.08C86.1915 427.776 85.358 431.328 85.358 434.735C85.358 437.996 86.1915 440.642 87.8585 442.671C89.5981 444.701 92.2074 445.715 95.6865 445.715C99.3105 445.715 103.079 444.737 106.993 442.78C110.98 440.75 113.915 438.032 115.8 434.626L118.3 435.713C115.474 441.946 111.125 446.911 105.254 450.608C99.383 454.304 93.1134 456.153 86.4452 456.153ZM154.177 454.957C147.001 454.957 141.565 453.217 137.869 449.738C134.245 446.186 132.432 440.968 132.432 434.082C132.432 430.676 132.94 426.87 133.955 422.666L145.044 378.526C138.811 380.193 133.955 383.164 130.476 387.441C126.996 391.645 125.257 396.283 125.257 401.357C125.257 404.909 126.199 408.352 128.084 411.686C123.952 411.686 120.727 410.671 118.407 408.641C116.161 406.612 115.037 403.749 115.037 400.052C115.037 395.341 116.922 390.847 120.691 386.571C124.532 382.222 129.606 378.743 135.912 376.134C142.217 373.525 148.886 372.22 155.916 372.22C158.381 372.22 160.41 372.401 162.005 372.763L148.741 422.993C147.508 427.559 146.892 431.473 146.892 434.735C146.892 441.62 149.719 445.063 155.373 445.063C163.49 445.063 169.108 437.598 172.224 422.666L183.097 372.437H198.426L187.88 422.666C185.561 433.321 181.538 441.366 175.812 446.803C170.159 452.239 162.947 454.957 154.177 454.957Z" fill="#EBF8F5"/>
<path d="M136.412 479.707H135.107C128.657 479.707 123.619 481.338 119.995 484.599C116.444 487.789 114.668 493.478 114.668 501.669C114.668 504.35 114.922 506.235 115.429 507.322C115.936 508.337 116.19 508.917 116.19 509.062C112.276 509.062 109.341 508.264 107.384 506.67C105.499 505.003 104.557 502.285 104.557 498.516C104.557 493.37 105.825 488.695 108.362 484.491C110.899 480.214 114.922 476.771 120.43 474.162C126.011 471.553 133.078 470.248 141.631 470.248C146.414 470.248 151.561 470.683 157.069 471.553C161.708 472.35 165.839 472.749 169.463 472.749C174.102 472.749 178.306 471.988 182.075 470.466C181.93 475.177 180.734 478.656 178.487 480.903C176.24 483.15 172.906 484.273 168.485 484.273C166.165 484.273 163.846 484.092 161.527 483.73C159.207 483.367 155.909 482.751 151.633 481.881L136.63 551.68H120.974L136.412 479.707ZM163.641 497.32H179.297L177.883 504.06C180.348 501.886 182.558 500.219 184.515 499.059C186.545 497.9 188.719 497.32 191.039 497.32C193.358 497.32 195.17 498.117 196.475 499.712C197.852 501.306 198.54 503.227 198.54 505.474C198.54 507.576 197.852 509.424 196.475 511.019C195.097 512.613 193.177 513.41 190.712 513.41C189.118 513.41 188.031 513.048 187.451 512.323C186.943 511.526 186.545 510.402 186.255 508.953C186.037 508.011 185.82 507.322 185.602 506.887C185.385 506.452 184.986 506.235 184.407 506.235C182.884 506.235 181.58 506.561 180.493 507.213C179.478 507.793 178.137 508.844 176.47 510.366L167.772 551.68H152.116L163.641 497.32ZM215.281 491.449C212.889 491.449 210.859 490.615 209.192 488.948C207.525 487.281 206.692 485.252 206.692 482.86C206.692 480.468 207.525 478.439 209.192 476.771C210.859 475.032 212.889 474.162 215.281 474.162C217.673 474.162 219.702 475.032 221.369 476.771C223.109 478.439 223.978 480.468 223.978 482.86C223.978 485.252 223.109 487.281 221.369 488.948C219.702 490.615 217.673 491.449 215.281 491.449ZM207.888 552.333C204.409 552.333 201.582 551.245 199.408 549.071C197.306 546.897 196.255 543.635 196.255 539.286C196.255 537.474 196.545 535.118 197.124 532.219L204.517 497.32H220.173L212.345 534.285C212.055 535.372 211.91 536.532 211.91 537.764C211.91 539.214 212.237 540.265 212.889 540.917C213.614 541.497 214.773 541.787 216.368 541.787C218.47 541.787 220.427 540.917 222.239 539.177C224.051 537.365 225.356 535.046 226.153 532.219H230.719C228.037 540.047 224.595 545.374 220.391 548.201C216.187 550.955 212.019 552.333 207.888 552.333ZM240.569 552.333C235.641 552.333 231.872 551.137 229.262 548.745C226.653 546.28 225.349 542.838 225.349 538.416C225.349 536.242 225.602 534.176 226.11 532.219L237.743 477.75L253.833 475.576L248.615 500.038C250.644 498.806 252.311 498.008 253.616 497.646C254.921 497.211 256.225 496.994 257.53 496.994C266.083 496.994 270.359 503.191 270.359 515.585C270.359 520.586 269.381 525.95 267.424 531.676C265.539 537.329 262.35 542.185 257.856 546.244C253.435 550.303 247.673 552.333 240.569 552.333ZM246.658 541.787C248.905 541.787 251.007 540.41 252.964 537.655C254.921 534.828 256.479 531.349 257.639 527.218C258.798 523.014 259.378 518.991 259.378 515.15C259.378 512.251 258.871 509.786 257.856 507.757C256.841 505.727 255.428 504.713 253.616 504.713C252.529 504.713 251.297 504.894 249.919 505.256C248.615 505.546 247.709 506.017 247.201 506.67L241.222 534.285C241.004 535.155 240.896 535.988 240.896 536.785C240.896 540.12 242.816 541.787 246.658 541.787ZM289.748 552.333C284.457 552.333 280.325 550.955 277.354 548.201C274.382 545.374 272.896 540.989 272.896 535.046C272.896 530.045 273.875 524.536 275.832 518.52C277.789 512.504 280.978 507.322 285.399 502.973C289.82 498.552 295.438 496.341 302.251 496.341C310.224 496.341 314.21 499.82 314.21 506.778C314.21 510.837 313.05 514.57 310.731 517.977C308.412 521.383 305.331 524.138 301.49 526.24C297.648 528.269 293.553 529.429 289.204 529.719C289.059 531.313 288.987 532.4 288.987 532.98C288.987 538.996 291.234 542.004 295.728 542.004C297.757 542.004 299.931 541.46 302.251 540.373C304.57 539.286 306.672 537.909 308.557 536.242C306.6 546.969 300.33 552.333 289.748 552.333ZM289.965 524.5C292.72 524.428 295.293 523.522 297.685 521.782C300.149 520.042 302.106 517.832 303.556 515.15C305.078 512.396 305.839 509.533 305.839 506.561C305.839 503.589 304.933 502.103 303.121 502.103C300.584 502.103 298.047 504.423 295.51 509.062C293.046 513.628 291.198 518.774 289.965 524.5Z" fill="#EBF8F5"/>
<g clip-path="url(#clip4_1_23)">
<path d="M363.189 506.04C360.009 514.911 356.886 523.63 353.745 532.386C350.183 528.7 344.697 530.693 344.231 535.668C340.934 535.231 339.27 532.579 340.387 529.436C343.202 521.525 346.041 513.622 348.892 505.727C349.862 503.042 352.082 502.002 354.745 502.951C357.514 503.938 360.269 504.969 363.188 506.037L363.189 506.04Z" fill="#EBF8F5"/>
<path d="M350.401 539.256C348.44 539.706 346.571 538.552 346.117 536.614C345.671 534.708 346.869 532.771 348.773 532.32C350.709 531.862 352.561 533.021 353.038 534.992C353.513 536.951 352.367 538.805 350.401 539.256Z" fill="#EBF8F5"/>
<path d="M368.906 484.146C369.511 484.37 370.073 484.581 370.938 484.903C370.407 485.77 369.929 486.524 369.484 487.295C369.295 487.622 369.148 487.979 369.02 488.337C367.275 493.207 365.535 498.079 363.794 502.949C363.703 503.201 363.658 503.5 363.492 503.686C363.333 503.867 362.989 504.072 362.827 504.008C362.643 503.936 362.418 503.533 362.471 503.35C362.758 502.358 363.121 501.389 363.468 500.414C364.954 496.264 366.47 492.127 367.908 487.962C368.243 486.995 368.303 485.931 368.52 484.919C368.572 484.673 368.745 484.454 368.904 484.149L368.906 484.146Z" fill="#EBF8F5"/>
<path d="M345.228 510.787C343.203 516.444 341.21 522.005 339.17 527.699C338.299 526.903 338.166 526.101 338.481 525.211C340.031 520.846 341.586 516.483 343.163 512.128C343.467 511.29 344.047 510.73 345.225 510.785L345.228 510.787Z" fill="#EBF8F5"/>
</g>
<path d="M500.242 56.6076L485.78 45.7609C478.72 40.4661 473.252 33.3318 469.975 25.1384C463.353 8.58331 448.119 -2.95232 430.388 -4.83745L-116.449 -62.9783C-175.528 -69.2597 -227.022 -22.9508 -227.022 36.4612V903.913C-227.022 959.141 -182.25 1003.91 -127.022 1003.91H603.957C633.683 1003.91 660.857 987.118 674.151 960.53L697.814 905.316L727.439 844.325C730.033 838.984 732.146 833.424 733.753 827.709L745.35 786.476C747.828 777.665 749.085 768.555 749.085 759.402V717.982V656.844C749.085 647.691 747.828 638.581 745.35 629.769L735.072 593.227C732.594 584.415 731.337 575.305 731.337 566.152V533.8C731.337 525.163 732.456 516.561 734.667 508.211L745.755 466.321C747.966 457.971 749.085 449.37 749.085 440.732V407.597C749.085 398.959 747.966 390.358 745.755 382.007L733.382 335.263C732.021 330.122 730.252 325.098 728.092 320.239L716.534 294.233C710.696 281.097 702.094 269.374 691.315 259.863L685.977 255.153C678.142 248.24 669.271 242.597 659.688 238.43L643.26 231.288C633.677 227.121 624.806 221.478 616.971 214.564L604.205 203.3C598.272 198.065 592.981 192.145 588.444 185.663L567.667 155.982L540.06 106.683L524.086 82.1088C517.695 72.276 509.624 63.6441 500.242 56.6076Z" fill="white" stroke="white"/>
<path d="M374.679 39.8331L367.304 32.1072C364.169 28.8229 361.766 24.9107 360.255 20.6291C355.848 8.14076 344.222 -0.357422 330.985 -0.7659L-130.522 -15.0076C-188.087 -16.784 -235.251 30.308 -233.563 87.8762L-210.174 885.446C-208.564 940.33 -163.003 983.651 -108.107 982.492L599.366 967.562C621.891 967.086 641.589 952.262 648.282 930.749L664.797 887.399C666.59 882.69 668.738 878.123 671.22 873.738L691.502 837.905L703.908 810.838C707.363 803.3 709.867 795.362 711.362 787.206L714.958 767.594C716.916 756.912 717.122 745.984 715.566 735.236L709.111 690.636L696.305 631.408L693.075 608.264C692.03 600.774 691.838 593.189 692.503 585.655L696.305 542.567V517.842C696.305 506.658 698.181 495.553 701.855 484.99L709.111 464.13L714.335 445.131C716.711 436.493 717.915 427.574 717.915 418.615V414.047C717.915 406.375 717.032 398.729 715.284 391.259L711.147 373.584C709.792 367.795 707.924 362.138 705.564 356.681L696.305 335.269L683.034 310.769C678.039 301.548 671.625 293.17 664.026 285.942L650.172 272.764C645.19 268.025 639.733 263.813 633.887 260.193L598.776 238.459C594.436 235.771 589.896 233.421 585.196 231.427L556.2 219.126C545.112 214.422 534.965 207.753 526.247 199.441L510.386 184.318C506.81 180.908 503.492 177.238 500.458 173.338L488.207 157.586L472.239 135.231C469.552 131.469 467.268 127.435 465.425 123.196C461.971 115.253 456.987 108.067 450.755 102.051L436.983 88.7535L404.968 63.9419L384.775 48.797C381.168 46.0922 377.791 43.094 374.679 39.8331Z" fill="url(#paint2_linear_1_23)"/>
<path d="M213.953 13.5207L200.033 -1.79203C197.547 -4.52651 195.448 -7.58926 193.795 -10.8945C187.22 -24.0436 174.018 -32.5803 159.329 -33.1817L-162.395 -46.3516C-219.18 -48.6762 -266.485 -3.26844 -266.485 53.5646V916.914C-266.485 972.143 -221.713 1016.91 -166.485 1016.91H428.267C465.342 1016.91 498.001 992.529 508.533 956.981C510.708 949.643 513.879 942.637 517.957 936.159L550.81 883.981C554.599 877.963 557.736 871.558 560.166 864.874L571.524 833.639C575.507 822.685 577.545 811.119 577.545 799.464V767.081C577.545 758.382 576.41 749.72 574.169 741.315L559.886 687.757C557.645 679.352 556.51 670.69 556.51 661.991V588.326V536.827C556.51 529.115 557.402 521.43 559.168 513.923L574.887 447.12C576.653 439.613 577.545 431.927 577.545 424.216V393.694C577.545 378.17 573.93 362.859 566.988 348.973L545.356 305.71C542.283 299.563 538.584 293.749 534.318 288.361L507.483 254.465C496.54 240.641 482.135 229.956 465.731 223.494L412.005 202.329C406.682 200.232 401.549 197.683 396.663 194.708L361.013 173.008C349.478 165.987 339.484 156.701 331.634 145.712L317.237 125.556L295.127 84.7374C287.204 70.1108 275.758 57.6916 261.824 48.6047L233.321 30.0154C226.189 25.3641 219.68 19.821 213.953 13.5207Z" fill="url(#paint3_linear_1_23)"/>
<ellipse cx="275.625" cy="45.2013" rx="12.4805" ry="4.02734" transform="rotate(31.5075 275.625 45.2013)" fill="#FEFFFF"/>
<ellipse cx="648.764" cy="319.46" rx="20.7112" ry="9.50906" transform="rotate(31.5075 648.764 319.46)" fill="#FEFFFF"/>
<ellipse cx="625.736" cy="825.74" rx="20.7112" ry="9.50906" transform="rotate(136.627 625.736 825.74)" fill="#FEFFFF"/>
<ellipse cx="608.176" cy="805.829" rx="8.28176" ry="3.80238" transform="rotate(136.627 608.176 805.829)" fill="#FEFFFF"/>
<ellipse cx="626.648" cy="289.607" rx="5.53178" ry="2.53979" transform="rotate(31.5075 626.648 289.607)" fill="#FEFFFF"/>
<g clip-path="url(#clip5_1_23)">
<path d="M158.119 564.387C163.958 566.484 169.731 568.782 175.646 570.653C210.079 581.532 244.119 582.153 277.564 566.668C292.98 559.53 308.303 552.107 324.062 545.791C335.884 541.051 348.325 537.872 359.485 534.324C359.635 534.341 358.563 534.207 357.331 534.056C357.281 533.426 357.147 532.89 357.222 532.37C359.744 515.107 363.095 497.894 361.856 480.313C360.917 466.984 357.616 454.193 351.986 442.047C351.601 441.208 351.056 440.436 350.051 438.716V457.195C344.974 454.167 340.575 450.46 339.813 443.791C339.419 443.716 339.034 443.632 338.64 443.556C336.83 451.542 335.021 459.536 333.286 467.219C324.942 461.322 326.107 445.385 336.83 432.786C331.988 433.692 328.235 435.831 326.375 439.79C324.64 443.481 324.037 447.709 322.965 451.575C318.893 445.175 318.776 435.873 322.856 430.026C327.187 423.811 333.194 423.148 339.972 425.119C340.098 424.675 340.215 424.239 340.341 423.794C336.328 422.318 332.315 420.85 328.419 419.415C332.625 413.77 338.28 413.636 345.678 419.348C350.327 411.464 355.161 408.645 362.501 410.012C360.373 411.564 358.379 412.688 356.812 414.248C355.346 415.716 354.324 417.637 353.477 419.768C360.532 415.305 367.745 412.269 376.006 414.626C380.622 415.951 384.359 418.795 386.897 423.274C373.431 421.121 365.126 420.973 361.981 422.829C365.667 423.601 369.806 423.895 373.451 425.388C377.715 427.133 378.905 431.318 379.332 436.007C372.504 433.751 366.019 431.62 359.535 429.481C359.309 429.8 359.074 430.11 358.848 430.429C366.422 436.284 368.415 444.152 367.846 454.26C364.076 450.284 361.068 447.105 358.06 443.925C357.675 443.984 357.298 444.043 356.912 444.11C373.116 472.235 371.046 502.114 366.145 533.183C378.913 511.668 386.931 489.079 395.761 466.749C393.265 469.392 390.768 472.042 388.121 474.852C386.227 468.888 388.883 461.641 394.077 456.558C391.564 457.195 389.017 457.707 386.546 458.496C384.04 459.292 381.611 460.349 379.139 461.306C378.452 454.369 382.784 451.282 393.34 451.517C386.303 447.608 379.692 449.688 372.831 451.483C378.436 442.776 385.917 441.988 398.945 447.742C396.809 445.536 394.672 443.33 392.628 441.225C397.655 440.151 400.797 441.879 404.332 447.532C407.315 446.744 410.079 445.553 412.903 445.427C414.712 445.343 416.589 446.819 419.312 447.969C415.173 449.445 412.065 450.552 408.965 451.659C409.04 452.02 409.107 452.372 409.183 452.733C414.344 451.24 419.027 451.659 422.278 456.34C426.023 461.725 425.277 467.353 422.403 473.275C421.507 466.666 419.949 460.618 413.154 459.125C414.821 463.319 417.067 467.714 418.281 472.386C419.563 477.318 417.754 481.865 414.545 486C413.137 479.768 411.805 473.905 410.507 468.125C407.532 471.665 404.818 474.894 401.45 478.904V464.845C393.332 487.854 385.473 510.141 377.522 532.672C398.183 531.346 417.988 534.517 436.537 545.539C435.75 545.656 435.339 545.858 435.088 545.732C408.437 532.739 380.915 533.561 353.025 540.548C329.927 546.336 308.219 555.839 286.906 566.157C266.204 576.181 244.706 582.061 221.599 581.138C199.724 580.266 178.972 574.746 159.116 565.645C158.689 565.452 158.32 565.117 157.926 564.848C158.002 564.697 158.069 564.538 158.144 564.387H158.119Z" fill="#EBF8F5"/>
<path d="M484.277 527.624C486.028 518.381 488.499 509.212 489.413 499.893C494.49 448.491 463.013 391.351 402.809 379.147C371.928 372.889 341.884 376.119 314.094 391.838C286.799 407.28 270.872 431.547 263.164 461.459C257.752 482.48 257.3 503.668 262.846 524.814C262.98 525.326 262.955 525.88 262.368 526.584C261.531 523.548 260.575 520.528 259.88 517.458C259.176 514.338 258.548 511.175 258.179 507.996C254.568 476.826 260.123 447.593 277.524 421.205C294.506 395.461 318.895 380.656 348.863 374.944C374.609 370.037 400.078 371.111 424.349 381.747C459.428 397.122 480.448 424.468 489.094 461.4C494.138 482.941 493.032 504.347 485.014 525.183C484.696 526.014 484.26 526.811 483.883 527.616C484.009 527.616 484.143 527.616 484.268 527.624H484.277Z" fill="#EBF8F5"/>
<g clip-path="url(#clip6_1_23)">
<path d="M436.472 520.989C436.229 522.748 436.276 524.58 435.734 526.273C435.616 526.643 435.451 527.028 435.126 527.242C434.707 527.515 434.126 527.417 433.722 527.124C433.319 526.83 433.061 526.378 432.853 525.924C430.307 520.333 433.769 513.248 430.868 507.831C428.631 503.653 423.32 501.924 420.862 497.873C420.784 497.744 420.708 497.61 420.684 497.461C420.617 497.041 421.014 496.658 421.433 496.584C421.851 496.511 422.277 496.656 422.676 496.807C423.899 497.27 425.095 497.8 426.263 498.387C428.09 499.311 429.854 500.388 431.791 501.051C434.005 501.813 436.284 501.706 438.577 501.468C442.447 501.063 445.339 499.206 448.485 497.112C449.231 496.613 450.011 496.104 450.898 495.961C451.785 495.819 452.814 496.15 453.202 496.96C453.48 497.007 453.759 497.054 454.035 497.098C455.289 497.308 457.177 500.517 458.07 501.439C459.469 502.881 461.091 504.212 463.083 504.704C463.691 504.853 464.317 504.922 464.934 505.027C465.462 505.118 465.984 505.238 466.503 505.363C470.317 506.277 473.918 507.838 476.678 510.702C477.454 511.508 478.191 512.679 477.679 513.673C476.79 513.878 475.823 513.727 475.041 513.26C474.669 513.037 474.341 512.752 473.994 512.494C473.419 512.067 472.786 511.719 472.118 511.461C471.494 511.221 470.672 511.107 470.25 511.626C469.996 511.94 469.985 512.378 469.985 512.783C469.99 514.352 469.992 515.919 469.939 517.488C469.869 519.512 469.705 521.53 469.446 523.538C469.326 524.477 469.179 525.43 468.778 526.289C468.586 526.698 468.323 527.097 467.927 527.313C467.53 527.529 466.978 527.511 466.681 527.17C466.548 527.019 466.478 526.823 466.416 526.632C466.031 525.443 465.83 524.197 465.821 522.948C465.812 521.659 465.944 520.188 465.041 519.269C464.039 519.104 463.283 520.166 462.96 521.127C462.513 522.452 462.359 523.876 462.517 525.265C462.595 525.948 462.704 526.752 462.203 527.221C461.762 527.635 461.011 527.549 460.541 527.166C458.856 525.799 459.3 521.846 459.36 519.948C459.447 517.126 459.745 514.274 459.229 511.477C458.85 509.425 458.025 507.473 456.851 505.75C456.31 504.958 455.784 504.181 455.28 503.362C454.871 502.694 454.129 500.762 453.462 500.399C453.313 500.317 453.164 500.237 453.015 500.154C453.012 499.346 453.008 498.539 453.006 497.731C450.715 500.114 448.383 502.454 446.206 504.946C445.769 505.447 445.332 505.957 445.003 506.536C444.504 507.408 444.261 508.403 444.054 509.389C443.699 511.065 443.423 512.799 443.708 514.488C443.882 515.51 444.35 516.38 444.426 517.408C444.497 518.361 444.363 519.356 444.259 520.299C444.098 521.744 443.784 523.173 443.646 524.617C443.57 525.399 443.476 526.231 442.986 526.845C442.496 527.46 441.46 527.704 440.93 527.124C440.649 526.816 440.582 526.376 440.542 525.962C440.308 523.611 440.449 521.107 439.283 519.053C438.887 518.354 437.964 517.689 437.361 518.218C437.198 518.361 437.104 518.566 437.024 518.766C436.741 519.48 436.583 520.226 436.478 520.985L436.472 520.989Z" fill="#EBF8F5"/>
<path d="M417.223 498.979C417.938 498.111 418.736 497.386 419.821 497.216C420.656 498.852 419.6 500.784 418.551 502.293C417.858 503.29 417.149 504.279 416.51 505.309C415.712 506.596 415.022 507.947 414.447 509.344C413.359 511.984 413.337 514.96 413.426 517.769C413.473 519.227 413.576 520.68 413.642 522.136C413.671 522.799 413.803 523.567 413.711 524.223C413.627 524.836 413.257 525.198 413.119 525.781C413.063 526.017 413.119 526.267 413.094 526.509C413.054 526.91 412.776 527.277 412.401 527.422C410.779 528.054 410.365 525.781 410.476 524.731C410.563 523.901 410.755 523.053 410.537 522.247C410.483 522.049 410.405 521.857 410.327 521.668C410.236 521.446 410.144 521.221 410.053 520.998C409.804 520.391 409.536 519.756 409.026 519.34C408.85 519.196 408.625 519.078 408.4 519.118C408.226 519.149 408.081 519.267 407.968 519.403C407.596 519.843 407.493 520.442 407.404 521.012C407.159 522.576 406.914 524.143 406.802 525.721C406.769 526.184 406.742 526.667 406.511 527.068C406.279 527.469 405.762 527.751 405.339 527.56C405.096 527.451 404.938 527.217 404.802 526.99C404.34 526.215 404 525.372 403.792 524.495C403.639 523.843 403.558 523.175 403.48 522.51C403.438 522.154 403.396 521.795 403.353 521.439C403.318 521.136 403.282 520.834 403.26 520.529C403.233 520.177 403.226 519.823 403.22 519.469C403.184 517.747 404.285 510.297 401.15 511.419C400.223 511.75 399.361 512.26 398.623 512.91C398.465 513.05 398.309 513.197 398.113 513.273C397.937 513.34 397.743 513.342 397.561 513.384C397.039 513.502 396.58 513.932 396.05 513.858C395.484 513.778 395.154 513.117 395.239 512.552C395.324 511.986 395.702 511.517 396.088 511.096C397.088 510.005 398.236 509.051 399.477 508.245C400.47 507.599 401.529 507.047 402.627 506.6C403.287 506.333 403.959 506.102 404.632 505.872C404.757 505.83 404.884 505.785 405.011 505.743C406.978 505.069 409.037 505.216 410.918 504.421C412.183 503.885 413.366 503.155 414.409 502.262C414.832 501.899 415.233 501.512 415.594 501.089C416.153 500.433 416.666 499.663 417.227 498.981L417.223 498.979Z" fill="#EBF8F5"/>
<path d="M436.406 500.085C436.245 499.91 436.078 499.745 435.853 499.687C435.673 499.64 435.439 499.645 435.352 499.48C435.309 499.398 435.321 499.298 435.318 499.204C435.303 498.545 434.34 497.975 434.171 497.212C434.002 496.449 434.048 495.469 434.322 494.726C435.004 492.874 438.019 491.674 439.549 493.103C440.752 494.227 441.325 495.983 441.013 497.599C440.986 497.735 440.953 497.875 440.87 497.989C440.784 498.107 440.65 498.187 440.579 498.314C440.51 498.434 440.505 498.576 440.481 498.712C440.289 499.798 438.821 500.281 437.921 500.56C437.647 500.644 437.35 500.729 437.076 500.642C436.8 500.553 436.608 500.31 436.408 500.09L436.406 500.085Z" fill="#EBF8F5"/>
<path d="M409.383 497.152C409.537 497.492 409.924 497.682 410.223 497.926C411.123 498.668 411.223 500.021 410.974 501.158C410.885 501.57 410.758 501.973 410.599 502.36C410.515 502.567 410.417 502.774 410.263 502.937C410.036 503.175 409.697 503.304 409.53 503.587C409.483 503.667 409.447 503.762 409.372 503.816C409.298 503.869 409.2 503.871 409.109 503.871C408.636 503.876 408.164 503.88 407.692 503.887C407.48 503.887 407.262 503.889 407.068 503.807C406.87 503.722 406.716 503.56 406.569 503.4C406.228 503.03 405.874 502.638 405.749 502.151C405.727 502.064 405.711 501.971 405.651 501.904C405.564 501.806 405.413 501.79 405.326 501.692C405.248 501.606 405.243 501.479 405.243 501.361C405.241 499.217 405.216 498.565 407.039 497.352C407.237 497.243 407.444 497.15 407.665 497.087C408.211 496.936 408.788 496.998 409.352 497.061C409.361 497.092 409.372 497.123 409.385 497.152H409.383Z" fill="#EBF8F5"/>
<path d="M463.839 503.598C462.879 503.126 462.244 502.133 462.082 500.933C461.919 499.734 462.336 498.503 463.171 497.651C463.456 497.475 463.652 497.406 463.686 497.05C463.708 496.932 464.84 496.974 464.956 496.972C465.822 496.956 466.667 497.595 467.257 498.236C467.752 498.775 467.915 499.502 467.93 500.215C467.937 500.537 467.948 500.931 467.859 501.243C467.756 501.606 467.505 501.677 467.407 501.995C467.358 502.153 467.358 502.327 467.288 502.476C467.235 502.587 467.144 502.678 467.055 502.763C466.564 503.226 465.943 503.883 465.228 503.896C464.715 503.905 464.247 503.798 463.842 503.598H463.839Z" fill="#EBF8F5"/>
</g>
</g>
<path d="M79.8548 458.804C73.2591 458.804 68.2579 456.992 64.8513 453.368C61.5172 449.744 59.8502 445.177 59.8502 439.669C59.8502 435.755 60.6474 431.841 62.242 427.927C63.9091 423.94 66.2647 420.461 69.3089 417.49C72.3531 414.518 75.9046 412.525 79.9636 411.51C77.7167 409.915 76.0496 407.995 74.9624 405.748C73.8752 403.428 73.3316 401 73.3316 398.463C73.3316 394.694 74.3463 390.998 76.3758 387.374C78.4777 383.75 81.3407 380.814 84.9647 378.567C88.6612 376.248 92.7202 375.088 97.1415 375.088C101.708 375.088 105.441 376.284 108.34 378.676C111.239 381.068 112.689 384.402 112.689 388.678C112.689 391.868 111.891 394.549 110.297 396.724C108.702 398.898 106.818 399.985 104.643 399.985C102.686 399.985 100.983 399.007 99.5334 397.05C100.838 396.615 101.961 395.419 102.904 393.462C103.846 391.505 104.317 389.548 104.317 387.591C104.317 385.489 103.737 383.967 102.578 383.025C101.418 382.01 100.004 381.503 98.3374 381.503C96.2355 381.503 94.3147 382.264 92.5752 383.786C90.9081 385.236 89.6035 387.156 88.6612 389.548C87.719 391.868 87.2479 394.296 87.2479 396.833C87.2479 400.312 88.1539 403.392 89.9659 406.074C91.7779 408.683 94.5322 410.459 98.2287 411.401C94.5322 412.198 91.1981 414.011 88.2264 416.837C85.2547 419.664 82.9353 422.962 81.2682 426.731C79.6012 430.427 78.7676 433.979 78.7676 437.386C78.7676 440.647 79.6012 443.293 81.2682 445.322C83.0077 447.352 85.6171 448.366 89.0961 448.366C92.7202 448.366 96.4892 447.388 100.403 445.431C104.39 443.401 107.325 440.683 109.21 437.277L111.71 438.364C108.883 444.597 104.535 449.562 98.6636 453.259C92.7926 456.955 86.5231 458.804 79.8548 458.804ZM147.586 457.608C140.411 457.608 134.975 455.868 131.278 452.389C127.654 448.837 125.842 443.619 125.842 436.733C125.842 433.327 126.35 429.521 127.364 425.318L138.454 381.177C132.22 382.844 127.364 385.816 123.885 390.092C120.406 394.296 118.667 398.935 118.667 404.008C118.667 407.56 119.609 411.003 121.493 414.337C117.362 414.337 114.137 413.322 111.817 411.292C109.57 409.263 108.447 406.4 108.447 402.704C108.447 397.992 110.331 393.498 114.1 389.222C117.942 384.873 123.015 381.394 129.321 378.785C135.627 376.176 142.295 374.871 149.326 374.871C151.79 374.871 153.82 375.052 155.414 375.415L142.15 425.644C140.918 430.21 140.302 434.124 140.302 437.386C140.302 444.271 143.129 447.714 148.782 447.714C156.9 447.714 162.517 440.249 165.634 425.318L176.506 375.088H191.836L181.29 425.318C178.971 435.972 174.948 444.018 169.222 449.454C163.568 454.89 156.357 457.608 147.586 457.608Z" fill="#EBF8F5"/>
<path d="M129.822 482.358H128.517C122.066 482.358 117.029 483.989 113.405 487.25C109.853 490.44 108.078 496.129 108.078 504.32C108.078 507.001 108.331 508.886 108.839 509.973C109.346 510.988 109.6 511.568 109.6 511.713C105.686 511.713 102.75 510.915 100.793 509.321C98.9088 507.654 97.9665 504.936 97.9665 501.167C97.9665 496.021 99.2349 491.346 101.772 487.142C104.309 482.865 108.331 479.422 113.84 476.813C119.421 474.204 126.488 472.899 135.04 472.899C139.824 472.899 144.97 473.334 150.479 474.204C155.118 475.001 159.249 475.4 162.873 475.4C167.512 475.4 171.716 474.639 175.485 473.117C175.34 477.828 174.144 481.307 171.897 483.554C169.65 485.801 166.316 486.924 161.895 486.924C159.575 486.924 157.256 486.743 154.936 486.381C152.617 486.018 149.319 485.402 145.043 484.532L130.039 554.331H114.383L129.822 482.358ZM157.05 499.971H172.706L171.293 506.711C173.757 504.537 175.968 502.87 177.925 501.71C179.954 500.551 182.129 499.971 184.448 499.971C186.768 499.971 188.58 500.768 189.884 502.363C191.261 503.957 191.95 505.878 191.95 508.125C191.95 510.227 191.261 512.075 189.884 513.67C188.507 515.264 186.586 516.061 184.122 516.061C182.527 516.061 181.44 515.699 180.86 514.974C180.353 514.177 179.954 513.054 179.664 511.604C179.447 510.662 179.23 509.973 179.012 509.538C178.795 509.103 178.396 508.886 177.816 508.886C176.294 508.886 174.989 509.212 173.902 509.864C172.888 510.444 171.547 511.495 169.88 513.017L161.182 554.331H145.526L157.05 499.971ZM208.69 494.1C206.299 494.1 204.269 493.266 202.602 491.599C200.935 489.932 200.101 487.903 200.101 485.511C200.101 483.119 200.935 481.09 202.602 479.422C204.269 477.683 206.299 476.813 208.69 476.813C211.082 476.813 213.112 477.683 214.779 479.422C216.518 481.09 217.388 483.119 217.388 485.511C217.388 487.903 216.518 489.932 214.779 491.599C213.112 493.266 211.082 494.1 208.69 494.1ZM201.297 554.984C197.818 554.984 194.992 553.896 192.817 551.722C190.715 549.548 189.664 546.286 189.664 541.937C189.664 540.125 189.954 537.769 190.534 534.87L197.927 499.971H213.583L205.755 536.936C205.465 538.023 205.32 539.183 205.32 540.415C205.32 541.865 205.646 542.916 206.299 543.568C207.023 544.148 208.183 544.438 209.778 544.438C211.88 544.438 213.837 543.568 215.649 541.828C217.461 540.016 218.765 537.697 219.563 534.87H224.129C221.447 542.698 218.004 548.025 213.8 550.852C209.596 553.606 205.429 554.984 201.297 554.984ZM233.979 554.984C229.05 554.984 225.281 553.788 222.672 551.396C220.063 548.931 218.758 545.489 218.758 541.067C218.758 538.893 219.012 536.827 219.519 534.87L231.152 480.401L247.243 478.227L242.025 502.689C244.054 501.457 245.721 500.659 247.026 500.297C248.33 499.862 249.635 499.645 250.94 499.645C259.492 499.645 263.769 505.842 263.769 518.236C263.769 523.237 262.79 528.601 260.833 534.327C258.949 539.98 255.76 544.836 251.266 548.895C246.844 552.954 241.082 554.984 233.979 554.984ZM240.068 544.438C242.314 544.438 244.416 543.061 246.373 540.306C248.33 537.48 249.889 534 251.048 529.869C252.208 525.665 252.788 521.642 252.788 517.801C252.788 514.902 252.281 512.437 251.266 510.408C250.251 508.379 248.838 507.364 247.026 507.364C245.938 507.364 244.706 507.545 243.329 507.907C242.025 508.197 241.119 508.668 240.611 509.321L234.631 536.936C234.414 537.806 234.305 538.639 234.305 539.437C234.305 542.771 236.226 544.438 240.068 544.438ZM283.158 554.984C277.867 554.984 273.735 553.606 270.763 550.852C267.792 548.025 266.306 543.64 266.306 537.697C266.306 532.696 267.284 527.187 269.241 521.171C271.198 515.155 274.387 509.973 278.809 505.624C283.23 501.203 288.847 498.992 295.661 498.992C303.633 498.992 307.62 502.471 307.62 509.429C307.62 513.488 306.46 517.221 304.141 520.628C301.821 524.034 298.741 526.789 294.899 528.891C291.058 530.92 286.963 532.08 282.614 532.37C282.469 533.964 282.397 535.051 282.397 535.631C282.397 541.647 284.643 544.655 289.137 544.655C291.167 544.655 293.341 544.112 295.661 543.024C297.98 541.937 300.082 540.56 301.966 538.893C300.009 549.62 293.74 554.984 283.158 554.984ZM283.375 527.151C286.129 527.079 288.702 526.173 291.094 524.433C293.559 522.693 295.516 520.483 296.965 517.801C298.487 515.047 299.248 512.184 299.248 509.212C299.248 506.24 298.342 504.754 296.53 504.754C293.993 504.754 291.457 507.074 288.92 511.713C286.455 516.279 284.607 521.425 283.375 527.151Z" fill="#EBF8F5"/>
<g clip-path="url(#clip7_1_23)">
<path d="M356.598 508.691C353.418 517.562 350.295 526.281 347.155 535.037C343.593 531.352 338.107 533.344 337.641 538.319C334.343 537.882 332.68 535.23 333.797 532.087C336.612 524.176 339.45 516.273 342.302 508.378C343.272 505.693 345.491 504.653 348.155 505.602C350.924 506.589 353.679 507.62 356.598 508.688L356.598 508.691Z" fill="#EBF8F5"/>
<path d="M343.811 541.907C341.85 542.357 339.981 541.203 339.527 539.265C339.08 537.359 340.279 535.422 342.183 534.971C344.119 534.513 345.97 535.672 346.448 537.643C346.923 539.602 345.776 541.456 343.811 541.907Z" fill="#EBF8F5"/>
<path d="M362.315 486.797C362.921 487.021 363.483 487.232 364.348 487.554C363.817 488.422 363.339 489.175 362.894 489.946C362.704 490.273 362.558 490.63 362.43 490.988C360.685 495.858 358.944 500.73 357.204 505.6C357.113 505.852 357.068 506.151 356.901 506.337C356.742 506.518 356.399 506.723 356.236 506.659C356.053 506.587 355.828 506.184 355.88 506.002C356.168 505.009 356.53 504.04 356.878 503.065C358.363 498.915 359.88 494.778 361.318 490.613C361.653 489.646 361.712 488.582 361.929 487.57C361.981 487.324 362.155 487.105 362.314 486.8L362.315 486.797Z" fill="#EBF8F5"/>
<path d="M338.637 513.438C336.613 519.095 334.62 524.656 332.58 530.35C331.709 529.555 331.576 528.752 331.891 527.862C333.441 523.497 334.995 519.134 336.573 514.779C336.877 513.941 337.457 513.382 338.635 513.436L338.637 513.438Z" fill="#EBF8F5"/>
</g>
<g clip-path="url(#clip8_1_23)">
<path d="M1266.31 753.085L1264.41 746.781L1241.17 741.179L1224.73 736.738L1200.39 731.256L1172.37 726.418L1146.77 723.605L1118.31 721.874L1096.4 722.097L1058.52 722.538L1027.36 725.543L992.459 730.595L948.246 737.325L894.793 749.857L835.055 766.563L775.149 786.546L730.001 802.293L667.918 830.274L615.671 855.058L573.502 878.41L532.037 903.353L496.805 927.59L484.92 936.011L478.655 942.511L474.988 947.067L474.78 952.399L495.93 1022.26L500.406 1025.71L505.846 1027.76L519.243 1029.65L544.979 1029.92L582.652 1028.82L613.383 1026.64L670.583 1021.97L722.862 1014.61L766.77 1006.83L818.375 995.8L867.637 982.263L960.36 954.175L1009.19 935.478L1048.48 918.507L1089.4 897.85L1129.77 874.607L1161.34 851.039L1212.32 809.186L1243.33 780.038L1261.72 759.057L1266.31 753.085Z" fill="#AB1A1A"/>
<path d="M698.335 850.872C709.481 852.182 735.06 835.257 745.351 831.139C767.82 822.162 790.523 813.744 813.458 806.058C858.397 791.011 904.292 778.712 950.969 770.338C1032.08 755.794 1116.29 752.961 1197.55 768.212C1188.76 773.699 1182.04 784.859 1174.25 792.245C1148.55 816.578 1116.49 836.529 1086.33 854.733C983.065 917.092 867.977 949.951 751.45 977.078C744.233 978.756 737.051 980.452 729.843 982.156C739.023 979.973 753.266 963.495 760.867 957.408C784.494 938.481 805.222 915.924 822.118 890.78C823.994 888 825.879 884.525 824.478 881.457C823.572 879.499 821.538 878.329 819.614 877.326C781.696 857.69 739.86 855.784 698.301 850.854L698.335 850.872Z" fill="#DE8282"/>
<path d="M634.106 881.863C635.622 881.758 637.143 881.939 638.663 882.12C655.882 884.214 672.926 887.659 689.622 892.365C703.327 896.232 723.879 900.064 734.313 910.463C719.556 931.851 705.745 954.955 685.942 972.183C662.143 992.92 631.421 995.672 601.008 996.225C585.061 996.52 565.945 992.148 556.468 977.877C555.147 975.878 554.306 973.582 553.482 971.339C550.71 963.755 547.865 955.848 548.769 947.82C551.342 925.019 576.936 908.319 595.407 899.312C606.041 894.106 616.735 888.997 627.489 883.985C629.31 883.121 631.192 882.267 633.195 881.978C633.499 881.94 633.802 881.902 634.114 881.889L634.106 881.863Z" fill="#DE8282"/>
<path d="M1257.32 776.285L1266.64 766.107C1267.78 764.87 1268.06 763.074 1267.35 761.551C1266.13 758.895 1262.62 758.299 1260.58 760.402L1245.23 776.285L1229.11 793.079L1176.71 839.433L1146.81 862.61L1131.02 874.03L1070.9 907.956L1024.88 928.445L953.51 956.324C950.465 957.513 951.317 962.035 954.586 962.035C954.87 962.035 955.151 961.994 955.423 961.914L975.504 955.989L1027.57 934.491L1089.37 907.956L1152.86 869.664L1186.11 843.128L1216.34 817.264L1239.18 796.438L1257.32 776.285Z" fill="#D4C7AF"/>
<path d="M1002.15 837.518C1003.06 839.871 1006.74 842.49 1010.23 844.533C1014.72 847.174 1019.61 849.102 1024.74 850.039C1028.58 850.741 1033.05 851.114 1036.08 849.945M1036.08 849.945C1033.05 851.114 1029.98 854.39 1027.61 857.486C1024.44 861.621 1022.1 866.335 1020.54 871.3C1019.32 875.16 1018.35 879.576 1019.26 881.924M1036.08 849.945L959.955 879.271" stroke="#EBF8F5" stroke-width="6"/>
</g>
<path d="M888.209 866.562C885.114 867.706 882.561 868.347 880.551 868.486C878.541 868.624 876.92 868.371 875.686 867.725C874.464 867.11 873.475 866.214 872.72 865.036C871.985 863.815 871.34 862.454 870.785 860.953C869.861 858.452 868.867 855.568 867.802 852.301C866.768 849.023 865.679 845.499 864.535 841.728C863.41 837.915 862.255 833.971 861.07 829.896L869.917 827.586C870.494 830.109 871.126 832.683 871.811 835.309C872.516 837.891 873.23 840.399 873.952 842.833C874.673 845.267 875.345 847.471 875.968 849.444C876.59 851.417 877.113 853.072 877.535 854.408C877.978 855.702 878.268 856.536 878.407 856.911C878.811 858.006 879.243 858.788 879.701 859.259C880.147 859.698 880.78 859.872 881.6 859.783C882.42 859.693 883.549 859.383 884.987 858.851C886.801 858.181 888.808 857.315 891.01 856.253C893.2 855.159 895.381 853.945 897.553 852.609C899.724 851.274 901.658 849.92 903.354 848.547L908.164 855.938C906.234 857.255 904.115 858.589 901.807 859.939C899.529 861.278 897.218 862.523 894.871 863.675C892.525 864.826 890.304 865.788 888.209 866.562ZM926.699 852.714C923.698 853.824 920.836 854.206 918.115 853.861C915.436 853.536 913.069 852.562 911.013 850.941C908.988 849.308 907.467 847.116 906.451 844.365C905.838 842.708 905.479 840.868 905.371 838.847C905.252 836.794 905.524 834.739 906.185 832.683C906.847 830.626 908.009 828.722 909.672 826.97C911.366 825.207 913.682 823.783 916.621 822.697C918.748 821.911 920.616 821.487 922.228 821.425C923.871 821.351 925.284 821.522 926.468 821.937C927.684 822.341 928.682 822.878 929.463 823.549C930.275 824.209 930.904 824.9 931.349 825.624C931.814 826.305 932.138 826.896 932.323 827.396C933.444 830.429 933.028 833.248 931.077 835.852C929.145 838.414 925.849 840.555 921.19 842.277C920.127 842.67 919.094 842.998 918.09 843.262C917.117 843.515 916.201 843.729 915.342 843.905C916.514 845.248 917.926 846.041 919.579 846.284C921.221 846.494 922.776 846.328 924.246 845.785C926.372 845 928.109 843.931 929.458 842.58C930.795 841.198 931.888 839.444 932.737 837.318L939.13 841.779C938.429 842.961 937.616 844.221 936.689 845.559C935.793 846.885 934.557 848.159 932.983 849.38C931.42 850.633 929.326 851.744 926.699 852.714ZM919.361 829.68C917.517 830.362 916.064 831.431 915.004 832.889C913.943 834.347 913.368 835.963 913.277 837.738C914.105 837.574 914.911 837.401 915.696 837.217C916.501 836.991 917.279 836.739 918.029 836.462C918.717 836.208 919.476 835.856 920.305 835.408C921.166 834.948 921.972 834.437 922.724 833.875C923.507 833.301 924.11 832.723 924.534 832.14C924.947 831.525 925.055 830.952 924.859 830.421C924.766 830.17 924.526 829.904 924.137 829.621C923.748 829.338 923.168 829.162 922.396 829.092C921.624 829.022 920.612 829.218 919.361 829.68ZM958.879 840.772C957.002 841.465 955.367 841.607 953.972 841.199C952.589 840.821 951.388 840.022 950.367 838.799C949.347 837.577 948.424 836.088 947.598 834.332C946.803 832.565 946.035 830.681 945.296 828.68C944.533 826.616 943.82 824.445 943.156 822.168C941.165 823.223 939.282 824.328 937.505 825.482L933.33 818.656C935.671 817.009 938.254 815.486 941.077 814.087C940.707 812.412 940.323 810.653 939.926 808.809C939.518 806.934 939.106 804.954 938.691 802.869L947.018 800.592C947.244 802.357 947.516 804.104 947.835 805.834C948.143 807.532 948.465 809.172 948.801 810.754C950.552 810.107 952.21 809.548 953.777 809.075C955.364 808.56 956.848 808.154 958.231 807.856L960.013 815.566C958.873 815.846 957.703 816.189 956.503 816.597C955.323 816.962 954.139 817.364 952.951 817.803C952.231 818.068 951.518 818.35 950.811 818.647C951.466 820.999 952.063 822.999 952.601 824.648C953.171 826.285 953.583 827.448 953.837 828.136C954.472 829.856 955.022 831.056 955.487 831.737C955.983 832.407 956.466 832.655 956.935 832.482C957.466 832.285 957.997 831.894 958.527 831.307C959.045 830.689 959.501 829.952 959.895 829.096C960.321 828.228 960.619 827.354 960.791 826.473L967.193 832.689C965.183 836.772 962.412 839.466 958.879 840.772ZM964.107 803.287L959.096 802.42C959.699 801.841 960.27 801.222 960.808 800.561C961.345 799.9 961.682 799.225 961.818 798.535L961.584 798.622C961.021 798.83 960.375 798.909 959.646 798.858C958.948 798.796 958.27 798.549 957.613 798.117C956.987 797.673 956.506 796.998 956.171 796.091C955.917 795.403 955.823 794.62 955.89 793.743C955.988 792.854 956.33 791.999 956.915 791.179C957.52 790.316 958.495 789.636 959.839 789.139C961.559 788.503 962.952 788.522 964.017 789.194C965.114 789.855 965.928 790.905 966.46 792.343C966.76 793.156 966.921 794.216 966.942 795.523C966.983 796.787 966.783 798.122 966.343 799.529C965.923 800.892 965.177 802.145 964.107 803.287ZM998.331 826.408C996.205 827.194 994.142 827.672 992.144 827.841C990.146 828.011 988.267 827.977 986.509 827.738C984.751 827.499 983.131 827.156 981.651 826.708L983.359 818.348C985.123 819.082 986.736 819.552 988.198 819.758C989.66 819.964 991.094 819.95 992.5 819.715C993.936 819.468 995.437 819.056 997 818.478C998.344 817.981 999.36 817.411 1000.05 816.767C1000.72 816.091 1000.95 815.472 1000.75 814.909C1000.57 814.44 1000.05 814.225 999.174 814.264C998.288 814.271 997.201 814.406 995.912 814.669C994.612 814.901 993.232 815.109 991.772 815.293C989.68 815.497 987.684 815.577 985.784 815.533C983.884 815.488 982.211 815.094 980.763 814.35C979.346 813.594 978.292 812.278 977.598 810.402C977.044 808.901 976.918 807.455 977.222 806.063C977.513 804.641 978.115 803.335 979.025 802.145C979.956 800.913 981.118 799.826 982.512 798.885C983.905 797.944 985.415 797.173 987.041 796.572C989.855 795.532 992.405 794.981 994.692 794.918C996.998 794.812 999.291 794.96 1001.57 795.361L999.695 803.41C998.514 803.1 997.228 802.936 995.835 802.918C994.462 802.856 993.119 802.926 991.808 803.126C990.515 803.284 989.353 803.553 988.322 803.935C987.196 804.35 986.368 804.852 985.839 805.438C985.341 806.013 985.207 806.613 985.438 807.239C985.577 807.614 986.1 807.829 987.009 807.884C987.938 807.897 989.626 807.753 992.073 807.452C993.533 807.268 995.077 807.071 996.705 806.86C998.322 806.618 999.896 806.552 1001.43 806.661C1002.98 806.727 1004.37 807.157 1005.58 807.951C1006.82 808.702 1007.77 809.969 1008.43 811.751C1009.54 814.753 1009.2 817.543 1007.41 820.121C1005.64 822.73 1002.61 824.826 998.331 826.408ZM1035.84 808.391C1033.87 809.119 1032.09 809.44 1030.5 809.354C1028.9 809.268 1027.48 808.924 1026.22 808.321C1024.99 807.675 1023.92 806.898 1023.01 805.988C1022.1 805.047 1021.36 804.096 1020.79 803.133C1020.21 802.139 1019.77 801.252 1019.48 800.47C1018.93 798.969 1018.56 797.346 1018.38 795.601C1018.23 793.845 1018.4 792.094 1018.89 790.349C1019.41 788.592 1020.39 786.968 1021.83 785.476C1023.3 783.974 1025.38 782.726 1028.07 781.732C1028.88 781.432 1029.66 781.217 1030.39 781.088C1031.13 780.959 1031.83 780.894 1032.51 780.893L1031.93 779.346L1040.05 776.348C1040.71 778.235 1041.46 780.373 1042.31 782.761C1043.15 785.118 1044.11 787.781 1045.21 790.752C1045.78 792.284 1046.37 793.894 1046.99 795.582C1047.64 797.228 1048.32 799.036 1049.05 801.006C1050.05 803.695 1050.5 806.032 1050.42 808.017C1050.33 810.003 1049.9 811.672 1049.12 813.026C1048.34 814.38 1047.42 815.486 1046.35 816.343C1045.32 817.219 1044.31 817.88 1043.3 818.323C1042.33 818.787 1041.6 819.111 1041.1 819.296C1039.88 819.746 1038.48 820.102 1036.91 820.364C1035.35 820.657 1033.72 820.778 1032.03 820.727C1030.35 820.707 1028.74 820.469 1027.18 820.012L1027.97 811.618C1029 811.986 1030 812.292 1030.98 812.534C1031.97 812.808 1033.04 812.911 1034.18 812.842C1035.34 812.805 1036.69 812.503 1038.22 811.937C1039.78 811.36 1040.84 810.651 1041.38 809.811C1041.93 809.002 1042.15 808.104 1042.03 807.116C1041.96 806.148 1041.74 805.127 1041.38 804.052C1040.61 805.227 1039.73 806.157 1038.74 806.843C1037.74 807.528 1036.78 808.045 1035.84 808.391ZM1026.28 797.214C1026.93 798.996 1027.94 800.224 1029.29 800.898C1030.67 801.56 1032.22 801.573 1033.94 800.938C1036.35 800.049 1037.63 797.993 1037.79 794.771C1037.42 793.771 1037.03 792.76 1036.62 791.74C1036.23 790.677 1035.83 789.651 1035.43 788.662C1033.88 788.311 1032.29 788.436 1030.66 789.036C1028.66 789.776 1027.26 790.897 1026.47 792.399C1025.69 793.858 1025.63 795.463 1026.28 797.214ZM1069.26 800.147C1066.76 801.072 1064.42 801.474 1062.25 801.354C1060.1 801.223 1058.16 800.679 1056.42 799.722C1054.67 798.734 1053.16 797.428 1051.88 795.803C1050.61 794.177 1049.59 792.348 1048.84 790.316C1048.08 788.252 1047.73 786.212 1047.81 784.196C1047.9 782.136 1048.34 780.213 1049.14 778.426C1049.97 776.628 1051.12 775.045 1052.61 773.679C1054.08 772.282 1055.85 771.202 1057.91 770.439C1060.07 769.642 1062.21 769.278 1064.33 769.347C1066.46 769.416 1068.45 769.868 1070.33 770.705C1072.2 771.541 1073.84 772.727 1075.27 774.263C1076.72 775.788 1077.84 777.613 1078.62 779.74C1080.37 784.461 1080.43 788.614 1078.8 792.2C1077.16 795.754 1073.99 798.403 1069.26 800.147ZM1066.41 792.567C1068.69 791.723 1070.19 790.441 1070.91 788.72C1071.65 786.988 1071.58 784.918 1070.69 782.51C1069.89 780.353 1068.59 778.86 1066.8 778.032C1065 777.204 1063.04 777.183 1060.91 777.968C1059.63 778.442 1058.58 779.219 1057.77 780.3C1056.95 781.349 1056.42 782.558 1056.18 783.926C1055.96 785.251 1056.1 786.586 1056.59 787.931C1057.03 789.119 1057.7 790.189 1058.58 791.142C1059.5 792.082 1060.62 792.716 1061.95 793.042C1063.27 793.338 1064.75 793.179 1066.41 792.567Z" fill="#EBF8F5"/>
</g>
<defs>
<linearGradient id="paint0_linear_1_23" x1="241.3" y1="-31.2851" x2="241.3" y2="971.583" gradientUnits="userSpaceOnUse">
<stop stop-color="#A3D2E2"/>
<stop offset="1" stop-color="#BBDEE4"/>
</linearGradient>
<linearGradient id="paint1_linear_1_23" x1="307.4" y1="569.64" x2="-512.966" y2="732.662" gradientUnits="userSpaceOnUse">
<stop stop-color="#8AC8D7"/>
<stop offset="1" stop-color="#429FC5"/>
</linearGradient>
<linearGradient id="paint2_linear_1_23" x1="240.619" y1="-18.2834" x2="240.619" y2="984.585" gradientUnits="userSpaceOnUse">
<stop stop-color="#A3D2E2"/>
<stop offset="1" stop-color="#BBDEE4"/>
</linearGradient>
<linearGradient id="paint3_linear_1_23" x1="306.719" y1="582.642" x2="-513.646" y2="745.664" gradientUnits="userSpaceOnUse">
<stop stop-color="#8AC8D7"/>
<stop offset="1" stop-color="#429FC5"/>
</linearGradient>
<clipPath id="clip0_1_23">
<rect width="1440" height="960" fill="white" transform="translate(0 0.499756)"/>
</clipPath>
<clipPath id="clip1_1_23">
<rect width="51.6831" height="48.6783" fill="white" transform="translate(1169.96 386.022) rotate(-71.723)"/>
</clipPath>
<clipPath id="clip2_1_23">
<rect width="306.593" height="209.107" fill="white" transform="translate(192.158 369.475)"/>
</clipPath>
<clipPath id="clip3_1_23">
<rect width="82.628" height="35.1531" fill="white" transform="translate(401.815 489.82)"/>
</clipPath>
<clipPath id="clip4_1_23">
<rect width="40.9516" height="49.6493" fill="white" transform="translate(330.738 492.806) rotate(-12.7841)"/>
</clipPath>
<clipPath id="clip5_1_23">
<rect width="306.593" height="209.107" fill="white" transform="translate(185.568 372.126)"/>
</clipPath>
<clipPath id="clip6_1_23">
<rect width="82.628" height="35.1531" fill="white" transform="translate(395.225 492.471)"/>
</clipPath>
<clipPath id="clip7_1_23">
<rect width="40.9516" height="49.6493" fill="white" transform="translate(324.148 495.457) rotate(-12.7841)"/>
</clipPath>
<clipPath id="clip8_1_23">
<rect width="818.511" height="219.408" fill="white" transform="translate(451.532 886.422) rotate(-17.5507)"/>
</clipPath>
</defs>
</svg>
